<?xml version="1.0" encoding="UTF-8" standalone="no"?>
<svg
   xmlns:dc="http://purl.org/dc/elements/1.1/"
   xmlns:cc="http://creativecommons.org/ns#"
   xmlns:rdf="http://www.w3.org/1999/02/22-rdf-syntax-ns#"
   xmlns:svg="http://www.w3.org/2000/svg"
   xmlns="http://www.w3.org/2000/svg"
   xmlns:xlink="http://www.w3.org/1999/xlink"
   version="1.1"
   id="b-cukurova"
   viewBox="0 0 320.00002 320.00001"
   height="320"
   width="320.00003">
  <defs
     id="defs8054">
    <linearGradient
       id="linearGradient7345">
      <stop
         id="stop7347"
         offset="0"
         style="stop-color:#4b686d;stop-opacity:1" />
      <stop
         id="stop7349"
         offset="1"
         style="stop-color:#424242;stop-opacity:1" />
    </linearGradient>
    <linearGradient
       id="linearGradient8213">
      <stop
         style="stop-color:#43085c;stop-opacity:1"
         offset="0"
         id="stop8215" />
      <stop
         style="stop-color:#ac0eee;stop-opacity:1"
         offset="1"
         id="stop8217" />
    </linearGradient>
    <linearGradient
       gradientTransform="translate(-886.2916,53.569259)"
       gradientUnits="userSpaceOnUse"
       y2="-2100.9199"
       x2="1924.3547"
       y1="-2100.9199"
       x1="1819.3149"
       id="linearGradient8810"
       xlink:href="#linearGradient8213" />
    <linearGradient
       gradientTransform="translate(438.02785,-211.61851)"
       gradientUnits="userSpaceOnUse"
       y2="-2325.9897"
       x2="1504.9647"
       y1="-2325.9897"
       x1="1451.2112"
       id="linearGradient8832"
       xlink:href="#linearGradient7345" />
    <linearGradient
       gradientTransform="translate(206.89775,89.180582)"
       gradientUnits="userSpaceOnUse"
       y2="-2075.1802"
       x2="1739.5026"
       y1="-2075.1802"
       x1="1673.6783"
       id="linearGradient8854"
       xlink:href="#linearGradient8213" />
    <linearGradient
       y2="-2325.9897"
       x2="1504.9647"
       y1="-2325.9897"
       x1="1451.2112"
       gradientTransform="translate(1761.134,-1452.6983)"
       gradientUnits="userSpaceOnUse"
       id="linearGradient10096"
       xlink:href="#linearGradient7345" />
    <linearGradient
       y2="-2555.4126"
       x2="1453.3149"
       y1="-2555.4126"
       x1="1440.5804"
       gradientTransform="translate(1772.4199,-1240.6673)"
       gradientUnits="userSpaceOnUse"
       id="linearGradient10098"
       xlink:href="#linearGradient7345" />
    <linearGradient
       y2="-2313.4312"
       x2="1526.597"
       y1="-2308.1187"
       x1="1449.5658"
       gradientTransform="matrix(1.8823531,0,0,1.8823531,-2548.5946,-2247.9433)"
       gradientUnits="userSpaceOnUse"
       id="linearGradient1663"
       xlink:href="#linearGradient8213" />
    <linearGradient
       xlink:href="#linearGradient7345"
       id="linearGradient10096-8"
       gradientUnits="userSpaceOnUse"
       gradientTransform="translate(1761.134,-1452.6983)"
       x1="1451.2112"
       y1="-2325.9897"
       x2="1504.9647"
       y2="-2325.9897" />
    <linearGradient
       xlink:href="#linearGradient7345"
       id="linearGradient10098-7"
       gradientUnits="userSpaceOnUse"
       gradientTransform="translate(1772.4199,-1240.6673)"
       x1="1440.5804"
       y1="-2555.4126"
       x2="1453.3149"
       y2="-2555.4126" />
  </defs>
  <metadata
     id="metadata8057">
    <rdf:RDF>
      <cc:Work
         rdf:about="">
        <dc:format>image/svg+xml</dc:format>
        <dc:type
           rdf:resource="http://purl.org/dc/dcmitype/StillImage" />
        <dc:title></dc:title>
      </cc:Work>
    </rdf:RDF>
  </metadata>
  <ellipse
     style="color:#000000;clip-rule:nonzero;display:inline;overflow:visible;visibility:visible;opacity:1;isolation:auto;mix-blend-mode:normal;color-interpolation:sRGB;color-interpolation-filters:linearRGB;solid-color:#000000;solid-opacity:1;fill:#cdffe0;fill-opacity:1;fill-rule:nonzero;stroke:none;stroke-width:31.50964546;stroke-linecap:butt;stroke-linejoin:miter;stroke-miterlimit:4;stroke-dasharray:none;stroke-dashoffset:0;stroke-opacity:1;color-rendering:auto;image-rendering:auto;shape-rendering:auto;text-rendering:auto;enable-background:accumulate"
     id="bg"
     cx="160.00002"
     cy="160.00021"
     rx="160.00002"
     ry="160" />
  <g
     id="bolgeradyolari"
     style="font-style:normal;font-weight:normal;font-size:12.539361px;line-height:0%;font-family:sans-serif;letter-spacing:0px;word-spacing:0px;fill:#455052;fill-opacity:1;stroke:none;stroke-width:1.04494667px;stroke-linecap:butt;stroke-linejoin:miter;stroke-opacity:1"
     transform="scale(1.0012774,0.99872424)"
     aria-label="TRT BÖLGERADYOSU">
    <path
       id="path843"
       style="font-style:normal;font-variant:normal;font-weight:800;font-stretch:normal;font-size:27.3782959px;line-height:89.99999762%;font-family:'Quiet Sans';-inkscape-font-specification:'Quiet Sans Ultra-Bold';letter-spacing:0px;fill:#455052;fill-opacity:1;stroke-width:1.04494667px"
       d="m 69.092857,206.54433 h 4.845958 V 192.8278 h 5.174498 v -4.35315 H 63.918359 v 4.35315 h 5.174498 z" />
    <path
       id="path845"
       style="font-style:normal;font-variant:normal;font-weight:800;font-stretch:normal;font-size:27.3782959px;line-height:89.99999762%;font-family:'Quiet Sans';-inkscape-font-specification:'Quiet Sans Ultra-Bold';letter-spacing:0px;fill:#455052;fill-opacity:1;stroke-width:1.04494667px"
       d="m 81.014822,206.54433 h 4.845958 v -6.1875 h 1.560563 l 3.69607,6.1875 h 5.77682 l -4.407905,-6.8172 c 2.135507,-0.8761 3.20326,-2.65569 3.20326,-5.31139 0,-3.91509 -2.327155,-5.94109 -6.926709,-5.94109 h -7.748057 z m 4.845958,-10.07522 v -3.88771 h 2.57356 c 1.615319,0 2.327155,0.60232 2.327155,1.94385 0,1.34154 -0.711836,1.94386 -2.327155,1.94386 z" />
    <path
       id="path847"
       style="font-style:normal;font-variant:normal;font-weight:800;font-stretch:normal;font-size:27.3782959px;line-height:89.99999762%;font-family:'Quiet Sans';-inkscape-font-specification:'Quiet Sans Ultra-Bold';letter-spacing:0px;fill:#455052;fill-opacity:1;stroke-width:1.04494667px"
       d="m 102.13932,206.54433 h 4.84595 V 192.8278 h 5.1745 v -4.35315 H 96.964818 v 4.35315 h 5.174502 z" />
    <path
       id="path849"
       style="font-style:normal;font-variant:normal;font-weight:normal;font-stretch:normal;font-size:27.3782959px;line-height:89.99999762%;font-family:'Quiet Sans';-inkscape-font-specification:'Quiet Sans';letter-spacing:0px;fill:#455052;fill-opacity:1;stroke-width:1.04494667px"
       d="m 66.190757,231.18495 h 8.432516 c 3.997231,0 6.077981,-1.72483 6.077981,-5.01023 0,-2.35453 -1.095132,-3.91509 -3.258017,-4.54479 v -0.0548 c 1.587941,-0.6297 2.381912,-1.8891 2.381912,-3.80558 0,-3.09375 -2.025994,-4.65431 -5.94109,-4.65431 h -7.693302 z m 2.327156,-10.32162 v -5.61255 h 5.147119 c 2.73783,0 3.832962,0.79397 3.832962,2.79259 0,1.99862 -1.095132,2.81996 -3.723449,2.81996 z m 0,8.18611 v -6.0506 h 5.475659 c 3.093747,0 4.325771,0.87611 4.325771,3.03899 0,2.10813 -1.177267,3.01161 -4.051988,3.01161 z" />
    <path
       id="path851"
       style="font-style:normal;font-variant:normal;font-weight:normal;font-stretch:normal;font-size:27.3782959px;line-height:89.99999762%;font-family:'Quiet Sans';-inkscape-font-specification:'Quiet Sans';letter-spacing:0px;fill:#455052;fill-opacity:1;stroke-width:1.04494667px"
       d="m 90.012869,210.73336 c 0.848727,0 1.478428,-0.6297 1.478428,-1.47842 0,-0.84873 -0.629701,-1.47843 -1.478428,-1.47843 -0.848727,0 -1.478428,0.6297 -1.478428,1.47843 0,0.84872 0.629701,1.47842 1.478428,1.47842 z m 4.65431,0 c 0.848728,0 1.478428,-0.6297 1.478428,-1.47842 0,-0.84873 -0.6297,-1.47843 -1.478428,-1.47843 -0.848727,0 -1.478428,0.6297 -1.478428,1.47843 0,0.84872 0.629701,1.47842 1.478428,1.47842 z m -2.327155,20.78013 c 5.530416,0 9.363376,-3.86034 9.363376,-9.36338 0,-5.50303 -3.83296,-9.36337 -9.363376,-9.36337 -5.530415,0 -9.363377,3.86034 -9.363377,9.36337 0,5.50304 3.832962,9.36338 9.363377,9.36338 z m 0,-2.16288 c -4.161501,0 -6.981465,-2.92948 -6.981465,-7.2005 0,-4.27101 2.819964,-7.20049 6.981465,-7.20049 4.161501,0 6.981466,2.92948 6.981466,7.20049 0,4.27102 -2.819965,7.2005 -6.981466,7.2005 z" />
    <path
       id="path853"
       style="font-style:normal;font-variant:normal;font-weight:normal;font-stretch:normal;font-size:27.3782959px;line-height:89.99999762%;font-family:'Quiet Sans';-inkscape-font-specification:'Quiet Sans';letter-spacing:0px;fill:#455052;fill-opacity:1;stroke-width:1.04494667px"
       d="m 105.17274,231.18495 h 12.37499 v -2.16288 H 107.4999 v -15.90679 h -2.32716 z" />
    <path
       id="path855"
       style="font-style:normal;font-variant:normal;font-weight:normal;font-stretch:normal;font-size:27.3782959px;line-height:89.99999762%;font-family:'Quiet Sans';-inkscape-font-specification:'Quiet Sans';letter-spacing:0px;fill:#455052;fill-opacity:1;stroke-width:1.04494667px"
       d="m 127.68968,231.51349 c 2.6557,0 5.22926,-0.82135 6.6803,-2.29978 v -7.96708 h -7.25524 v 2.13551 h 4.95547 v 4.81858 c -1.20465,0.73921 -2.73783,1.14989 -4.38053,1.14989 -4.32577,0 -7.14573,-2.81997 -7.14573,-7.2005 0,-4.43528 2.87472,-7.20049 7.39214,-7.20049 1.99861,0 3.80558,0.54757 5.22925,1.56057 v -2.32716 c -1.39629,-0.93086 -3.31277,-1.39629 -5.36615,-1.39629 -5.77682,0 -9.63716,3.75082 -9.63716,9.36337 0,5.61255 3.83297,9.36338 9.52765,9.36338 z" />
    <path
       id="path857"
       style="font-style:normal;font-variant:normal;font-weight:normal;font-stretch:normal;font-size:27.3782959px;line-height:89.99999762%;font-family:'Quiet Sans';-inkscape-font-specification:'Quiet Sans';letter-spacing:0px;fill:#455052;fill-opacity:1;stroke-width:1.04494667px"
       d="m 137.89836,231.18495 h 13.71653 v -2.13551 h -11.38937 v -6.10536 h 9.80143 v -2.1355 h -9.80143 v -5.5578 h 11.11558 v -2.1355 h -13.44274 z" />
    <path
       id="path860"
       style="font-style:normal;font-variant:normal;font-weight:300;font-stretch:normal;font-size:27.3782959px;line-height:89.99999762%;font-family:'Quiet Sans';-inkscape-font-specification:'Quiet Sans Light';letter-spacing:0px;fill:#455052;fill-opacity:1;stroke-width:1.04494667px"
       d="m 66.327649,255.82509 h 1.587941 v -7.88495 h 5.448281 l 6.077982,7.88495 h 1.998615 l -6.132738,-7.93971 c 3.148504,-0.35592 4.791202,-2.05337 4.791202,-5.0376 0,-3.39491 -2.080751,-5.09237 -6.10536,-5.09237 h -7.665923 z m 1.587941,-9.336 v -7.28263 h 6.077982 c 3.066369,0 4.49004,1.17727 4.49004,3.64132 0,2.46404 -1.423671,3.64131 -4.49004,3.64131 z" />
    <path
       id="path862"
       style="font-style:normal;font-variant:normal;font-weight:300;font-stretch:normal;font-size:27.3782959px;line-height:89.99999762%;font-family:'Quiet Sans';-inkscape-font-specification:'Quiet Sans Light';letter-spacing:0px;fill:#455052;fill-opacity:1;stroke-width:1.04494667px"
       d="m 81.72238,255.82509 h 1.642698 l 2.108128,-4.81858 h 9.609782 l 2.080751,4.81858 h 1.697454 l -7.884949,-18.06968 h -1.368915 z m 4.380527,-6.26963 4.161501,-9.69192 4.161501,9.69192 z" />
    <path
       id="path864"
       style="font-style:normal;font-variant:normal;font-weight:300;font-stretch:normal;font-size:27.3782959px;line-height:89.99999762%;font-family:'Quiet Sans';-inkscape-font-specification:'Quiet Sans Light';letter-spacing:0px;fill:#455052;fill-opacity:1;stroke-width:1.04494667px"
       d="m 101.45957,255.82509 h 5.58517 c 6.26963,0 9.85618,-3.31278 9.85618,-9.03484 0,-5.74944 -3.58655,-9.03484 -9.85618,-9.03484 h -5.58517 z m 1.58794,-1.45105 v -15.16758 h 3.96985 c 5.36615,0 8.26824,2.68308 8.26824,7.58379 0,4.90072 -2.90209,7.58379 -8.26824,7.58379 z" />
    <path
       id="path866"
       style="font-style:normal;font-variant:normal;font-weight:300;font-stretch:normal;font-size:27.3782959px;line-height:89.99999762%;font-family:'Quiet Sans';-inkscape-font-specification:'Quiet Sans Light';letter-spacing:0px;fill:#455052;fill-opacity:1;stroke-width:1.04494667px"
       d="m 123.93629,255.82509 h 1.58794 v -8.18611 l 7.11836,-9.88357 h -1.86173 l -6.02322,8.35038 -5.99585,-8.35038 h -1.94386 l 7.11836,9.91095 z" />
    <path
       id="path868"
       style="font-style:normal;font-variant:normal;font-weight:300;font-stretch:normal;font-size:27.3782959px;line-height:89.99999762%;font-family:'Quiet Sans';-inkscape-font-specification:'Quiet Sans Light';letter-spacing:0px;fill:#455052;fill-opacity:1;stroke-width:1.04494667px"
       d="m 141.96576,256.15363 c 5.50304,0 9.336,-3.88772 9.336,-9.36338 0,-5.50304 -3.83296,-9.36338 -9.336,-9.36338 -5.50304,0 -9.36338,3.86034 -9.36338,9.36338 0,5.47566 3.86034,9.36338 9.36338,9.36338 z m 0,-1.47843 c -4.57218,0 -7.74806,-3.25802 -7.74806,-7.88495 0,-4.65431 3.17588,-7.88495 7.74806,-7.88495 4.57217,0 7.72068,3.23064 7.72068,7.88495 0,4.62693 -3.14851,7.88495 -7.72068,7.88495 z" />
    <path
       id="path870"
       style="font-style:normal;font-variant:normal;font-weight:300;font-stretch:normal;font-size:27.3782959px;line-height:89.99999762%;font-family:'Quiet Sans';-inkscape-font-specification:'Quiet Sans Light';letter-spacing:0px;fill:#455052;fill-opacity:1;stroke-width:1.04494667px"
       d="m 160.2613,256.15363 c 4.32577,0 6.8172,-1.8891 6.8172,-5.22926 0,-2.43666 -1.34154,-4.07936 -4.59956,-4.76382 l -3.06637,-0.65708 c -2.76521,-0.60232 -3.83296,-1.53318 -3.83296,-3.17588 0,-2.13551 1.83435,-3.42229 4.95547,-3.42229 2.32716,0 4.40791,0.68446 5.63993,1.91648 v -1.80697 c -1.20464,-1.01299 -3.28539,-1.58794 -5.61255,-1.58794 -4.10674,0 -6.57079,1.88911 -6.57079,4.98285 0,2.29978 1.36892,3.77821 4.49004,4.46267 l 2.98424,0.65707 c 2.87472,0.62971 4.0246,1.6427 4.0246,3.47705 0,2.32715 -1.86172,3.66869 -5.20187,3.66869 -2.68307,0 -5.06499,-0.87611 -6.46128,-2.35453 v 1.86172 c 1.36892,1.2594 3.75083,1.97124 6.4339,1.97124 z" />
    <path
       id="path872"
       style="font-style:normal;font-variant:normal;font-weight:300;font-stretch:normal;font-size:27.3782959px;line-height:89.99999762%;font-family:'Quiet Sans';-inkscape-font-specification:'Quiet Sans Light';letter-spacing:0px;fill:#455052;fill-opacity:1;stroke-width:1.04494667px"
       d="m 177.28205,256.15363 c 4.84596,0 7.25525,-2.43667 7.25525,-7.25525 v -11.14297 h -1.53319 V 248.871 c 0,3.88772 -1.83434,5.77682 -5.69468,5.77682 -3.83297,0 -5.69469,-1.8891 -5.69469,-5.77682 v -11.11559 h -1.58794 v 11.14297 c 0,4.81858 2.40929,7.25525 7.25525,7.25525 z" />
  </g>
  <path
     d="m 142.06932,256 c 5.89375,0 9.89713,-3.8823 9.89713,-9.4283 0,-5.5461 -4.00338,-9.539 -9.89713,-9.539 -5.67124,0 -9.78582,3.9929 -9.78582,9.539 0,5.546 4.11458,9.4283 9.78582,9.4283 z"
     style="font-style:normal;font-variant:normal;font-weight:800;font-stretch:normal;font-size:90px;font-family:'Quiet Sans';-inkscape-font-specification:'Quiet Sans Ultra-Bold';opacity:1;fill:#529e6e;fill-opacity:1;stroke-width:1.0507381"
     id="o" />
  <text
     id="text5115"
     y="341.01584"
     x="456.51312"
     style="font-style:normal;font-variant:normal;font-weight:800;font-stretch:normal;font-size:96px;line-height:1.25;font-family:'Quiet Sans';-inkscape-font-specification:'Quiet Sans Ultra-Bold';letter-spacing:0px;word-spacing:0px;fill:#529e6e;fill-opacity:1;stroke:none"
     xml:space="preserve"><tspan
       style="font-style:normal;font-variant:normal;font-weight:800;font-stretch:normal;font-size:96px;font-family:'Quiet Sans';-inkscape-font-specification:'Quiet Sans Ultra-Bold';fill:#529e6e;fill-opacity:1"
       y="429.65598"
       x="456.51312"
       id="tspan5113" /></text>
  <g
     id="cukurova"
     transform="translate(-13.60465,6811.0668)">
    <g
       id="text6268"
       style="font-style:normal;font-variant:normal;font-weight:800;font-stretch:normal;font-size:96px;line-height:1.25;font-family:'Quiet Sans';-inkscape-font-specification:'Quiet Sans Ultra-Bold';letter-spacing:0px;word-spacing:0px;fill:#529e6e;fill-opacity:1;stroke:none"
       aria-label="çu-">
      <path
         id="path875"
         style="font-style:normal;font-variant:normal;font-weight:800;font-stretch:normal;font-size:96px;font-family:'Quiet Sans';-inkscape-font-specification:'Quiet Sans Ultra-Bold';fill:#529e6e;fill-opacity:1"
         d="m 184.2082,-6771.0613 c 3.072,0 6.048,0.768 9.216,2.592 v -14.208 c -3.456,-1.728 -7.2,-2.592 -11.424,-2.592 -13.632,0 -23.04,9.216 -23.04,22.176 0,10.656 6.336,18.816 16.224,21.312 l -3.744,10.464 h 2.784 c 3.84,0 4.608,0.672 4.608,2.304 0,1.44 -0.576,2.304 -3.936,2.304 -3.552,0 -6.432,-0.96 -8.256,-2.4 v 7.776 c 2.4,1.536 6.336,2.304 10.848,2.304 8.832,0 13.632,-3.072 13.632,-9.6 0,-5.376 -3.264,-8.16 -9.984,-8.736 l 1.344,-3.552 c 4.032,-0.096 7.584,-0.96 10.944,-2.592 v -14.112 c -3.168,1.728 -6.144,2.496 -9.216,2.496 -5.952,0 -9.12,-2.784 -9.12,-7.968 0,-5.184 3.168,-7.968 9.12,-7.968 z" />
      <path
         id="path877"
         style="font-style:normal;font-variant:normal;font-weight:800;font-stretch:normal;font-size:96px;font-family:'Quiet Sans';-inkscape-font-specification:'Quiet Sans Ultra-Bold';fill:#529e6e;fill-opacity:1"
         d="m 214.1752,-6740.9173 c 5.568,0 9.696,-2.016 12.96,-7.008 l 1.728,5.856 h 11.52 v -42.048 h -15.936 v 25.344 c -1.056,2.208 -2.592,3.264 -4.704,3.264 -2.688,0 -3.936,-1.536 -3.936,-4.8 v -23.808 h -15.936 v 26.592 c 0,10.944 5.088,16.608 14.304,16.608 z" />
      <path
         id="path879"
         style="font-style:normal;font-variant:normal;font-weight:800;font-stretch:normal;font-size:96px;font-family:'Quiet Sans';-inkscape-font-specification:'Quiet Sans Ultra-Bold';fill:#529e6e;fill-opacity:1"
         d="m 248.3242,-6760.3093 h 24 v -12.768 h -24 z" />
    </g>
    <g
       id="text6272"
       style="font-style:normal;font-variant:normal;font-weight:800;font-stretch:normal;font-size:96px;line-height:1.25;font-family:'Quiet Sans';-inkscape-font-specification:'Quiet Sans Ultra-Bold';letter-spacing:0px;word-spacing:0px;fill:#529e6e;fill-opacity:1;stroke:none"
       aria-label="ova">
      <path
         id="path882"
         style="font-style:normal;font-variant:normal;font-weight:800;font-stretch:normal;font-size:96px;font-family:'Quiet Sans';-inkscape-font-specification:'Quiet Sans Ultra-Bold';fill:#529e6e;fill-opacity:1"
         d="m 154.92804,-6604.3163 c 13.44,0 23.04,-9.216 23.04,-22.176 0,-12.96 -9.6,-22.176 -23.04,-22.176 -13.44,0 -23.04,9.216 -23.04,22.176 0,12.96 9.6,22.176 23.04,22.176 z m 0,-13.92 c -4.416,0 -6.912,-2.976 -6.912,-8.256 0,-5.28 2.496,-8.256 6.912,-8.256 4.416,0 6.912,2.976 6.912,8.256 0,5.28 -2.496,8.256 -6.912,8.256 z" />
      <path
         id="path884"
         style="font-style:normal;font-variant:normal;font-weight:800;font-stretch:normal;font-size:96px;font-family:'Quiet Sans';-inkscape-font-specification:'Quiet Sans Ultra-Bold';fill:#529e6e;fill-opacity:1"
         d="m 194.23854,-6605.4683 h 13.824 l 15.744,-42.048 h -15.936 l -6.144,22.464 -6.144,-22.464 h -17.088 z" />
      <path
         id="path886"
         style="font-style:normal;font-variant:normal;font-weight:800;font-stretch:normal;font-size:96px;font-family:'Quiet Sans';-inkscape-font-specification:'Quiet Sans Ultra-Bold';fill:#529e6e;fill-opacity:1"
         d="m 238.69854,-6604.3163 c 5.376,0 9.696,-2.016 12.384,-5.76 l 2.016,4.608 h 11.52 v -25.44 c 0,-11.904 -6.624,-17.76 -20.064,-17.76 -6.72,0 -12.192,1.44 -16.416,4.224 v 12.48 c 3.456,-2.784 7.584,-4.224 12.48,-4.224 5.664,0 7.968,1.92 8.064,6.624 -2.88,-0.96 -5.664,-1.44 -8.544,-1.44 -9.504,0 -15.36,5.088 -15.36,13.536 0,8.064 5.376,13.152 13.92,13.152 z m 5.28,-10.464 c -2.88,0 -4.416,-1.344 -4.416,-3.84 0,-2.496 1.632,-3.936 4.704,-3.936 1.344,0 2.784,0.288 4.416,0.96 v 5.376 c -1.536,0.96 -3.072,1.44 -4.704,1.44 z" />
    </g>
    <g
       id="text6276"
       style="font-style:normal;font-variant:normal;font-weight:800;font-stretch:normal;font-size:96px;line-height:1.25;font-family:'Quiet Sans';-inkscape-font-specification:'Quiet Sans Ultra-Bold';letter-spacing:0px;word-spacing:0px;fill:#529e6e;fill-opacity:1;stroke:none"
       aria-label="kur-">
      <path
         id="path889"
         style="font-style:normal;font-variant:normal;font-weight:800;font-stretch:normal;font-size:96px;font-family:'Quiet Sans';-inkscape-font-specification:'Quiet Sans Ultra-Bold';fill:#529e6e;fill-opacity:1"
         d="m 136.59204,-6662.6914 h 15.936 v -16.992 l 9.792,16.992 h 18.816 l -14.112,-21.984 13.92,-20.064 h -17.28 l -11.136,16.608 v -42.72 h -15.936 z" />
      <path
         id="path891"
         style="font-style:normal;font-variant:normal;font-weight:800;font-stretch:normal;font-size:96px;font-family:'Quiet Sans';-inkscape-font-specification:'Quiet Sans Ultra-Bold';fill:#529e6e;fill-opacity:1"
         d="m 197.94504,-6661.5394 c 5.568,0 9.696,-2.016 12.96,-7.008 l 1.728,5.856 h 11.52 v -42.048 h -15.936 v 25.344 c -1.056,2.208 -2.592,3.264 -4.704,3.264 -2.688,0 -3.936,-1.536 -3.936,-4.8 v -23.808 h -15.936 v 26.592 c 0,10.944 5.088,16.608 14.304,16.608 z" />
      <path
         id="path893"
         style="font-style:normal;font-variant:normal;font-weight:800;font-stretch:normal;font-size:96px;font-family:'Quiet Sans';-inkscape-font-specification:'Quiet Sans Ultra-Bold';fill:#529e6e;fill-opacity:1"
         d="m 233.34204,-6662.6914 h 15.936 v -21.312 c 1.152,-3.936 3.936,-5.856 8.448,-5.856 0.96,0 2.112,0.096 3.456,0.384 v -16.128 c -1.056,-0.192 -2.112,-0.288 -3.072,-0.288 -5.088,0 -8.544,2.496 -11.04,8.544 l -2.208,-7.392 h -11.52 z" />
      <path
         id="path895"
         style="font-style:normal;font-variant:normal;font-weight:800;font-stretch:normal;font-size:96px;font-family:'Quiet Sans';-inkscape-font-specification:'Quiet Sans Ultra-Bold';fill:#529e6e;fill-opacity:1"
         d="m 267.34404,-6680.9314 h 24 v -12.768 h -24 z" />
    </g>
  </g>
  <path
     id="path6694"
     style="font-style:normal;font-variant:normal;font-weight:800;font-stretch:normal;font-size:90px;font-family:'Quiet Sans';-inkscape-font-specification:'Quiet Sans Ultra-Bold';opacity:1;fill:#529e6e;fill-opacity:1;stroke-width:1.0507381"
     d="m 141.71577,194.8353 c 5.89375,0 9.89713,-3.8823 9.89713,-9.4283 0,-5.5461 -4.00338,-9.539 -9.89713,-9.539 -5.67124,0 -9.78582,3.9929 -9.78582,9.539 0,5.546 4.11458,9.4283 9.78582,9.4283 z" />
  <path
     d="m 228.81873,200.8424 c 5.89375,0 9.89713,-3.8823 9.89713,-9.4283 0,-5.5461 -4.00338,-9.539 -9.89713,-9.539 -5.67124,0 -9.78582,3.9929 -9.78582,9.539 0,5.546 4.11458,9.4283 9.78582,9.4283 z"
     style="font-style:normal;font-variant:normal;font-weight:800;font-stretch:normal;font-size:90px;font-family:'Quiet Sans';-inkscape-font-specification:'Quiet Sans Ultra-Bold';opacity:1;fill:#529e6e;fill-opacity:1;stroke-width:1.0507381"
     id="path859" />
</svg>
