<?xml version="1.0" encoding="UTF-8" standalone="no"?>
<svg
   xmlns:dc="http://purl.org/dc/elements/1.1/"
   xmlns:cc="http://creativecommons.org/ns#"
   xmlns:rdf="http://www.w3.org/1999/02/22-rdf-syntax-ns#"
   xmlns:svg="http://www.w3.org/2000/svg"
   xmlns="http://www.w3.org/2000/svg"
   xmlns:xlink="http://www.w3.org/1999/xlink"
   version="1.1"
   id="b-trabzon"
   viewBox="0 0 320.00002 320.00001"
   height="320"
   width="320.00003">
  <defs
     id="defs8054">
    <linearGradient
       id="linearGradient7345">
      <stop
         id="stop7347"
         offset="0"
         style="stop-color:#4b686d;stop-opacity:1" />
      <stop
         id="stop7349"
         offset="1"
         style="stop-color:#424242;stop-opacity:1" />
    </linearGradient>
    <linearGradient
       id="linearGradient8213">
      <stop
         style="stop-color:#43085c;stop-opacity:1"
         offset="0"
         id="stop8215" />
      <stop
         style="stop-color:#ac0eee;stop-opacity:1"
         offset="1"
         id="stop8217" />
    </linearGradient>
    <linearGradient
       gradientTransform="translate(-886.2916,53.569259)"
       gradientUnits="userSpaceOnUse"
       y2="-2100.9199"
       x2="1924.3547"
       y1="-2100.9199"
       x1="1819.3149"
       id="linearGradient8810"
       xlink:href="#linearGradient8213" />
    <linearGradient
       gradientTransform="translate(438.02785,-211.61851)"
       gradientUnits="userSpaceOnUse"
       y2="-2325.9897"
       x2="1504.9647"
       y1="-2325.9897"
       x1="1451.2112"
       id="linearGradient8832"
       xlink:href="#linearGradient7345" />
    <linearGradient
       gradientTransform="translate(206.89775,89.180582)"
       gradientUnits="userSpaceOnUse"
       y2="-2075.1802"
       x2="1739.5026"
       y1="-2075.1802"
       x1="1673.6783"
       id="linearGradient8854"
       xlink:href="#linearGradient8213" />
    <linearGradient
       y2="-2325.9897"
       x2="1504.9647"
       y1="-2325.9897"
       x1="1451.2112"
       gradientTransform="translate(1761.134,-1452.6983)"
       gradientUnits="userSpaceOnUse"
       id="linearGradient10096"
       xlink:href="#linearGradient7345" />
    <linearGradient
       y2="-2555.4126"
       x2="1453.3149"
       y1="-2555.4126"
       x1="1440.5804"
       gradientTransform="translate(1772.4199,-1240.6673)"
       gradientUnits="userSpaceOnUse"
       id="linearGradient10098"
       xlink:href="#linearGradient7345" />
    <linearGradient
       y2="-2313.4312"
       x2="1526.597"
       y1="-2308.1187"
       x1="1449.5658"
       gradientTransform="matrix(1.8823531,0,0,1.8823531,-2548.5946,-2247.9433)"
       gradientUnits="userSpaceOnUse"
       id="linearGradient1663"
       xlink:href="#linearGradient8213" />
    <linearGradient
       xlink:href="#linearGradient7345"
       id="linearGradient10096-8"
       gradientUnits="userSpaceOnUse"
       gradientTransform="translate(1761.134,-1452.6983)"
       x1="1451.2112"
       y1="-2325.9897"
       x2="1504.9647"
       y2="-2325.9897" />
    <linearGradient
       xlink:href="#linearGradient7345"
       id="linearGradient10098-7"
       gradientUnits="userSpaceOnUse"
       gradientTransform="translate(1772.4199,-1240.6673)"
       x1="1440.5804"
       y1="-2555.4126"
       x2="1453.3149"
       y2="-2555.4126" />
  </defs>
  <metadata
     id="metadata8057">
    <rdf:RDF>
      <cc:Work
         rdf:about="">
        <dc:format>image/svg+xml</dc:format>
        <dc:type
           rdf:resource="http://purl.org/dc/dcmitype/StillImage" />
        <dc:title></dc:title>
      </cc:Work>
    </rdf:RDF>
  </metadata>
  <ellipse
     style="color:#000000;clip-rule:nonzero;display:inline;overflow:visible;visibility:visible;opacity:1;isolation:auto;mix-blend-mode:normal;color-interpolation:sRGB;color-interpolation-filters:linearRGB;solid-color:#000000;solid-opacity:1;fill:#cdffe0;fill-opacity:1;fill-rule:nonzero;stroke:none;stroke-width:31.50964546;stroke-linecap:butt;stroke-linejoin:miter;stroke-miterlimit:4;stroke-dasharray:none;stroke-dashoffset:0;stroke-opacity:1;color-rendering:auto;image-rendering:auto;shape-rendering:auto;text-rendering:auto;enable-background:accumulate"
     id="bg"
     cx="160.00002"
     cy="160.00021"
     rx="160.00002"
     ry="160" />
  <g
     id="bolgeradyolari"
     style="font-style:normal;font-weight:normal;font-size:12.539361px;line-height:0%;font-family:sans-serif;letter-spacing:0px;word-spacing:0px;fill:#455052;fill-opacity:1;stroke:none;stroke-width:1.04494667px;stroke-linecap:butt;stroke-linejoin:miter;stroke-opacity:1"
     transform="scale(1.0012774,0.99872426)"
     aria-label="TRT BÖLGERADYOSU">
    <path
       id="path862"
       style="font-style:normal;font-variant:normal;font-weight:800;font-stretch:normal;font-size:27.3782959px;line-height:89.99999762%;font-family:'Quiet Sans';-inkscape-font-specification:'Quiet Sans Ultra-Bold';letter-spacing:0px;fill:#455052;fill-opacity:1;stroke-width:1.04494667px"
       d="m 69.092849,206.54448 h 4.845959 v -13.71653 h 5.174498 V 188.4748 H 63.918351 v 4.35315 h 5.174498 z" />
    <path
       id="path864"
       style="font-style:normal;font-variant:normal;font-weight:800;font-stretch:normal;font-size:27.3782959px;line-height:89.99999762%;font-family:'Quiet Sans';-inkscape-font-specification:'Quiet Sans Ultra-Bold';letter-spacing:0px;fill:#455052;fill-opacity:1;stroke-width:1.04494667px"
       d="m 81.014814,206.54448 h 4.845958 v -6.1875 h 1.560563 l 3.69607,6.1875 h 5.776821 l -4.407906,-6.8172 c 2.135507,-0.8761 3.203261,-2.65569 3.203261,-5.31139 0,-3.91509 -2.327156,-5.94109 -6.926709,-5.94109 h -7.748058 z m 4.845958,-10.07521 v -3.88772 h 2.57356 c 1.61532,0 2.327155,0.60232 2.327155,1.94386 0,1.34153 -0.711835,1.94386 -2.327155,1.94386 z" />
    <path
       id="path866"
       style="font-style:normal;font-variant:normal;font-weight:800;font-stretch:normal;font-size:27.3782959px;line-height:89.99999762%;font-family:'Quiet Sans';-inkscape-font-specification:'Quiet Sans Ultra-Bold';letter-spacing:0px;fill:#455052;fill-opacity:1;stroke-width:1.04494667px"
       d="m 102.13931,206.54448 h 4.84596 v -13.71653 h 5.17449 V 188.4748 H 96.96481 v 4.35315 h 5.1745 z" />
    <path
       id="path868"
       style="font-style:normal;font-variant:normal;font-weight:normal;font-stretch:normal;font-size:27.3782959px;line-height:89.99999762%;font-family:'Quiet Sans';-inkscape-font-specification:'Quiet Sans';letter-spacing:0px;fill:#455052;fill-opacity:1;stroke-width:1.04494667px"
       d="m 66.19075,231.18506 h 8.432515 c 3.997231,0 6.077982,-1.72483 6.077982,-5.01023 0,-2.35453 -1.095132,-3.9151 -3.258018,-4.5448 v -0.0548 c 1.587942,-0.6297 2.381912,-1.88911 2.381912,-3.80559 0,-3.09374 -2.025994,-4.65431 -5.94109,-4.65431 H 66.19075 Z m 2.327155,-10.32162 v -5.61255 h 5.14712 c 2.737829,0 3.832961,0.79397 3.832961,2.79259 0,1.99861 -1.095132,2.81996 -3.723448,2.81996 z m 0,8.18611 v -6.0506 h 5.475659 c 3.093748,0 4.325771,0.8761 4.325771,3.03899 0,2.10813 -1.177267,3.01161 -4.051988,3.01161 z" />
    <path
       id="path870"
       style="font-style:normal;font-variant:normal;font-weight:normal;font-stretch:normal;font-size:27.3782959px;line-height:89.99999762%;font-family:'Quiet Sans';-inkscape-font-specification:'Quiet Sans';letter-spacing:0px;fill:#455052;fill-opacity:1;stroke-width:1.04494667px"
       d="m 90.012862,210.73347 c 0.848727,0 1.478428,-0.6297 1.478428,-1.47843 0,-0.84872 -0.629701,-1.47842 -1.478428,-1.47842 -0.848728,0 -1.478428,0.6297 -1.478428,1.47842 0,0.84873 0.6297,1.47843 1.478428,1.47843 z m 4.65431,0 c 0.848727,0 1.478428,-0.6297 1.478428,-1.47843 0,-0.84872 -0.629701,-1.47842 -1.478428,-1.47842 -0.848727,0 -1.478428,0.6297 -1.478428,1.47842 0,0.84873 0.629701,1.47843 1.478428,1.47843 z m -2.327155,20.78013 c 5.530415,0 9.363373,-3.86034 9.363373,-9.36338 0,-5.50304 -3.832958,-9.36338 -9.363373,-9.36338 -5.530416,0 -9.363378,3.86034 -9.363378,9.36338 0,5.50304 3.832962,9.36338 9.363378,9.36338 z m 0,-2.16289 c -4.161501,0 -6.981466,-2.92947 -6.981466,-7.20049 0,-4.27101 2.819965,-7.20049 6.981466,-7.20049 4.161501,0 6.981465,2.92948 6.981465,7.20049 0,4.27102 -2.819964,7.20049 -6.981465,7.20049 z" />
    <path
       id="path872"
       style="font-style:normal;font-variant:normal;font-weight:normal;font-stretch:normal;font-size:27.3782959px;line-height:89.99999762%;font-family:'Quiet Sans';-inkscape-font-specification:'Quiet Sans';letter-spacing:0px;fill:#455052;fill-opacity:1;stroke-width:1.04494667px"
       d="m 105.17274,231.18506 h 12.37499 v -2.16289 h -10.04784 v -15.90679 h -2.32715 z" />
    <path
       id="path874"
       style="font-style:normal;font-variant:normal;font-weight:normal;font-stretch:normal;font-size:27.3782959px;line-height:89.99999762%;font-family:'Quiet Sans';-inkscape-font-specification:'Quiet Sans';letter-spacing:0px;fill:#455052;fill-opacity:1;stroke-width:1.04494667px"
       d="m 127.68967,231.5136 c 2.6557,0 5.22926,-0.82135 6.68031,-2.29978 v -7.96708 h -7.25525 v 2.1355 h 4.95547 v 4.81858 c -1.20464,0.73922 -2.73783,1.14989 -4.38053,1.14989 -4.32577,0 -7.14573,-2.81996 -7.14573,-7.20049 0,-4.43528 2.87472,-7.20049 7.39214,-7.20049 1.99861,0 3.80558,0.54757 5.22925,1.56056 v -2.32715 c -1.39629,-0.93087 -3.31277,-1.3963 -5.36614,-1.3963 -5.77682,0 -9.63716,3.75083 -9.63716,9.36338 0,5.61255 3.83296,9.36338 9.52764,9.36338 z" />
    <path
       id="path876"
       style="font-style:normal;font-variant:normal;font-weight:normal;font-stretch:normal;font-size:27.3782959px;line-height:89.99999762%;font-family:'Quiet Sans';-inkscape-font-specification:'Quiet Sans';letter-spacing:0px;fill:#455052;fill-opacity:1;stroke-width:1.04494667px"
       d="m 137.89835,231.18506 h 13.71653 v -2.13551 h -11.38937 v -6.10536 h 9.80143 v -2.13551 h -9.80143 v -5.55779 h 11.11559 v -2.13551 h -13.44275 z" />
    <path
       id="path878"
       style="font-style:normal;font-variant:normal;font-weight:300;font-stretch:normal;font-size:27.3782959px;line-height:89.99999762%;font-family:'Quiet Sans';-inkscape-font-specification:'Quiet Sans Light';letter-spacing:0px;fill:#455052;fill-opacity:1;stroke-width:1.04494667px"
       d="m 66.327641,255.82536 h 1.587941 v -7.88495 h 5.448281 l 6.077982,7.88495 h 1.998616 l -6.132739,-7.9397 c 3.148504,-0.35592 4.791202,-2.05337 4.791202,-5.03761 0,-3.39491 -2.08075,-5.09236 -6.10536,-5.09236 h -7.665923 z m 1.587941,-9.336 v -7.28262 h 6.077982 c 3.066369,0 4.490041,1.17726 4.490041,3.64131 0,2.46405 -1.423672,3.64131 -4.490041,3.64131 z" />
    <path
       id="path880"
       style="font-style:normal;font-variant:normal;font-weight:300;font-stretch:normal;font-size:27.3782959px;line-height:89.99999762%;font-family:'Quiet Sans';-inkscape-font-specification:'Quiet Sans Light';letter-spacing:0px;fill:#455052;fill-opacity:1;stroke-width:1.04494667px"
       d="m 81.722372,255.82536 h 1.642698 l 2.108129,-4.81858 h 9.609782 l 2.08075,4.81858 h 1.697455 l -7.88495,-18.06967 h -1.368915 z m 4.380528,-6.26963 4.161501,-9.69191 4.161501,9.69191 z" />
    <path
       id="path882"
       style="font-style:normal;font-variant:normal;font-weight:300;font-stretch:normal;font-size:27.3782959px;line-height:89.99999762%;font-family:'Quiet Sans';-inkscape-font-specification:'Quiet Sans Light';letter-spacing:0px;fill:#455052;fill-opacity:1;stroke-width:1.04494667px"
       d="m 101.45956,255.82536 h 5.58517 c 6.26963,0 9.85619,-3.31277 9.85619,-9.03483 0,-5.74945 -3.58656,-9.03484 -9.85619,-9.03484 h -5.58517 z m 1.58794,-1.45105 v -15.16757 h 3.96985 c 5.36615,0 8.26825,2.68307 8.26825,7.58379 0,4.90071 -2.9021,7.58378 -8.26825,7.58378 z" />
    <path
       id="path884"
       style="font-style:normal;font-variant:normal;font-weight:300;font-stretch:normal;font-size:27.3782959px;line-height:89.99999762%;font-family:'Quiet Sans';-inkscape-font-specification:'Quiet Sans Light';letter-spacing:0px;fill:#455052;fill-opacity:1;stroke-width:1.04494667px"
       d="m 123.93628,255.82536 h 1.58794 v -8.18611 l 7.11836,-9.88356 h -1.86172 l -6.02323,8.35038 -5.99585,-8.35038 h -1.94385 l 7.11835,9.91094 z" />
    <path
       id="path886"
       style="font-style:normal;font-variant:normal;font-weight:300;font-stretch:normal;font-size:27.3782959px;line-height:89.99999762%;font-family:'Quiet Sans';-inkscape-font-specification:'Quiet Sans Light';letter-spacing:0px;fill:#455052;fill-opacity:1;stroke-width:1.04494667px"
       d="m 141.96575,256.1539 c 5.50304,0 9.336,-3.88772 9.336,-9.36337 0,-5.50304 -3.83296,-9.36338 -9.336,-9.36338 -5.50304,0 -9.36338,3.86034 -9.36338,9.36338 0,5.47565 3.86034,9.36337 9.36338,9.36337 z m 0,-1.47843 c -4.57218,0 -7.74806,-3.25801 -7.74806,-7.88494 0,-4.65431 3.17588,-7.88495 7.74806,-7.88495 4.57218,0 7.72068,3.23064 7.72068,7.88495 0,4.62693 -3.1485,7.88494 -7.72068,7.88494 z" />
    <path
       id="path888"
       style="font-style:normal;font-variant:normal;font-weight:300;font-stretch:normal;font-size:27.3782959px;line-height:89.99999762%;font-family:'Quiet Sans';-inkscape-font-specification:'Quiet Sans Light';letter-spacing:0px;fill:#455052;fill-opacity:1;stroke-width:1.04494667px"
       d="m 160.26129,256.1539 c 4.32577,0 6.8172,-1.8891 6.8172,-5.22925 0,-2.43667 -1.34154,-4.07937 -4.59956,-4.76383 l -3.06636,-0.65707 c -2.76521,-0.60233 -3.83297,-1.53319 -3.83297,-3.17589 0,-2.1355 1.83435,-3.42228 4.95548,-3.42228 2.32715,0 4.4079,0.68445 5.63992,1.91648 v -1.80697 c -1.20464,-1.013 -3.28539,-1.58794 -5.61255,-1.58794 -4.10674,0 -6.57079,1.8891 -6.57079,4.98285 0,2.29978 1.36892,3.7782 4.49004,4.46266 l 2.98424,0.65708 c 2.87472,0.6297 4.02461,1.6427 4.02461,3.47704 0,2.32716 -1.86173,3.66869 -5.20188,3.66869 -2.68307,0 -5.06498,-0.8761 -6.46128,-2.35453 v 1.86173 c 1.36892,1.2594 3.75083,1.97123 6.4339,1.97123 z" />
    <path
       id="path890"
       style="font-style:normal;font-variant:normal;font-weight:300;font-stretch:normal;font-size:27.3782959px;line-height:89.99999762%;font-family:'Quiet Sans';-inkscape-font-specification:'Quiet Sans Light';letter-spacing:0px;fill:#455052;fill-opacity:1;stroke-width:1.04494667px"
       d="m 177.28204,256.1539 c 4.84596,0 7.25525,-2.43667 7.25525,-7.25525 v -11.14296 h -1.53319 v 11.11559 c 0,3.88771 -1.83434,5.77682 -5.69468,5.77682 -3.83296,0 -5.69469,-1.88911 -5.69469,-5.77682 v -11.11559 h -1.58794 v 11.14296 c 0,4.81858 2.40929,7.25525 7.25525,7.25525 z" />
  </g>
  <path
     d="m 142.06932,255.99995 c 5.89375,0 9.89713,-3.88226 9.89713,-9.42824 0,-5.54608 -4.00338,-9.53901 -9.89713,-9.53901 -5.67124,0 -9.78582,3.99293 -9.78582,9.53901 0,5.54598 4.11458,9.42824 9.78582,9.42824 z"
     style="font-style:normal;font-variant:normal;font-weight:800;font-stretch:normal;font-size:90px;font-family:'Quiet Sans';-inkscape-font-specification:'Quiet Sans Ultra-Bold';opacity:1;fill:#529e6e;fill-opacity:1;stroke-width:1.0507381"
     id="o" />
  <g
     id="trabzon"
     transform="translate(-19.23333,6806.5632)">
    <g
       id="text4976"
       style="font-style:normal;font-variant:normal;font-weight:800;font-stretch:normal;font-size:96px;line-height:1.25;font-family:'Quiet Sans';-inkscape-font-specification:'Quiet Sans Ultra-Bold';letter-spacing:0px;word-spacing:0px;fill:#529e6e;fill-opacity:1;stroke:none"
       aria-label="trab-">
      <path
         id="path843"
         style="font-style:normal;font-variant:normal;font-weight:800;font-stretch:normal;font-size:96px;font-family:'Quiet Sans';-inkscape-font-specification:'Quiet Sans Ultra-Bold';fill:#529e6e;fill-opacity:1"
         d="m 159.4371,-6658.5394 c 3.648,0 6.432,-0.576 9.12,-1.92 v -13.152 c -1.632,0.768 -3.264,1.152 -4.704,1.152 -2.976,0 -4.608,-1.536 -4.608,-5.088 v -11.616 h 9.312 v -12.576 h -9.312 v -14.4 l -15.36,7.776 -0.192,6.624 h -6.24 v 12.576 h 5.856 v 15.456 c 0,10.08 5.28,15.168 16.128,15.168 z" />
      <path
         id="path845"
         style="font-style:normal;font-variant:normal;font-weight:800;font-stretch:normal;font-size:96px;font-family:'Quiet Sans';-inkscape-font-specification:'Quiet Sans Ultra-Bold';fill:#529e6e;fill-opacity:1"
         d="m 174.7686,-6659.6914 h 15.936 v -21.312 c 1.152,-3.936 3.936,-5.856 8.448,-5.856 0.96,0 2.112,0.096 3.456,0.384 v -16.128 c -1.056,-0.192 -2.112,-0.288 -3.072,-0.288 -5.088,0 -8.544,2.496 -11.04,8.544 l -2.208,-7.392 h -11.52 z" />
      <path
         id="path847"
         style="font-style:normal;font-variant:normal;font-weight:800;font-stretch:normal;font-size:96px;font-family:'Quiet Sans';-inkscape-font-specification:'Quiet Sans Ultra-Bold';fill:#529e6e;fill-opacity:1"
         d="m 218.9046,-6658.5394 c 5.376,0 9.696,-2.016 12.384,-5.76 l 2.016,4.608 h 11.52 v -25.44 c 0,-11.904 -6.624,-17.76 -20.064,-17.76 -6.72,0 -12.192,1.44 -16.416,4.224 v 12.48 c 3.456,-2.784 7.584,-4.224 12.48,-4.224 5.664,0 7.968,1.92 8.064,6.624 -2.88,-0.96 -5.664,-1.44 -8.544,-1.44 -9.504,0 -15.36,5.088 -15.36,13.536 0,8.064 5.376,13.152 13.92,13.152 z m 5.28,-10.464 c -2.88,0 -4.416,-1.344 -4.416,-3.84 0,-2.496 1.632,-3.936 4.704,-3.936 1.344,0 2.784,0.288 4.416,0.96 v 5.376 c -1.536,0.96 -3.072,1.44 -4.704,1.44 z" />
      <path
         id="path849"
         style="font-style:normal;font-variant:normal;font-weight:800;font-stretch:normal;font-size:96px;font-family:'Quiet Sans';-inkscape-font-specification:'Quiet Sans Ultra-Bold';fill:#529e6e;fill-opacity:1"
         d="m 279.5391,-6658.5394 c 11.328,0 19.008,-8.64 19.008,-22.08 0,-13.248 -7.488,-22.272 -18.432,-22.272 -4.224,0 -8.064,1.344 -10.848,4.608 v -29.568 h -15.936 v 68.16 h 11.52 l 1.728,-5.952 c 3.072,4.896 7.296,7.104 12.96,7.104 z m -4.128,-13.92 c -2.688,0 -4.8,-1.056 -6.144,-2.976 v -10.464 c 1.344,-1.92 3.456,-3.072 6.144,-3.072 4.416,0 7.008,3.072 7.008,8.256 0,5.28 -2.592,8.256 -7.008,8.256 z" />
      <path
         id="path851"
         style="font-style:normal;font-variant:normal;font-weight:800;font-stretch:normal;font-size:96px;font-family:'Quiet Sans';-inkscape-font-specification:'Quiet Sans Ultra-Bold';fill:#529e6e;fill-opacity:1"
         d="m 304.7706,-6677.9314 h 24 v -12.768 h -24 z" />
    </g>
    <g
       id="text4980"
       style="font-style:normal;font-variant:normal;font-weight:800;font-stretch:normal;font-size:96px;line-height:1.25;font-family:'Quiet Sans';-inkscape-font-specification:'Quiet Sans Ultra-Bold';letter-spacing:0px;word-spacing:0px;fill:#529e6e;fill-opacity:1;stroke:none"
       aria-label="zon">
      <path
         id="path854"
         style="font-style:normal;font-variant:normal;font-weight:800;font-stretch:normal;font-size:96px;font-family:'Quiet Sans';-inkscape-font-specification:'Quiet Sans Ultra-Bold';fill:#529e6e;fill-opacity:1"
         d="m 137.4531,-6603.6807 h 37.632 v -12.768 h -17.088 l 16.608,-18.432 v -10.848 h -35.136 v 12.768 h 14.688 l -16.704,18.432 z" />
      <path
         id="path857"
         style="font-style:normal;font-variant:normal;font-weight:800;font-stretch:normal;font-size:96px;font-family:'Quiet Sans';-inkscape-font-specification:'Quiet Sans Ultra-Bold';fill:#529e6e;fill-opacity:1"
         d="m 203.1606,-6602.5287 c 13.44,0 23.04,-9.216 23.04,-22.176 0,-12.96 -9.6,-22.176 -23.04,-22.176 -13.44,0 -23.04,9.216 -23.04,22.176 0,12.96 9.6,22.176 23.04,22.176 z m 0,-13.92 c -4.416,0 -6.912,-2.976 -6.912,-8.256 0,-5.28 2.496,-8.256 6.912,-8.256 4.416,0 6.912,2.976 6.912,8.256 0,5.28 -2.496,8.256 -6.912,8.256 z" />
      <path
         id="path859"
         style="font-style:normal;font-variant:normal;font-weight:800;font-stretch:normal;font-size:96px;font-family:'Quiet Sans';-inkscape-font-specification:'Quiet Sans Ultra-Bold';fill:#529e6e;fill-opacity:1"
         d="m 233.2326,-6603.6807 h 15.936 v -25.344 c 1.056,-2.208 2.592,-3.264 4.704,-3.264 2.688,0 3.936,1.536 3.936,4.8 v 23.808 h 15.936 v -26.592 c 0,-10.944 -5.088,-16.608 -14.304,-16.608 -5.568,0 -9.696,2.016 -12.96,7.008 l -1.728,-5.856 h -11.52 z" />
    </g>
  </g>
  <path
     id="path856"
     style="font-style:normal;font-variant:normal;font-weight:800;font-stretch:normal;font-size:90px;font-family:'Quiet Sans';-inkscape-font-specification:'Quiet Sans Ultra-Bold';opacity:1;fill:#529e6e;fill-opacity:1;stroke-width:1.0507381"
     d="m 184.11902,190.5893 c 5.89375,0 9.89713,-3.88226 9.89713,-9.42824 0,-5.54608 -4.00338,-9.53901 -9.89713,-9.53901 -5.67124,0 -9.78582,3.99293 -9.78582,9.53901 0,5.54598 4.11458,9.42824 9.78582,9.42824 z" />
  <path
     d="m 203.47523,143.86741 c 5.89375,0 9.89713,-3.88226 9.89713,-9.42824 0,-5.54608 -4.00338,-9.53901 -9.89713,-9.53901 -5.67124,0 -9.78582,3.99293 -9.78582,9.53901 0,5.54598 4.11458,9.42824 9.78582,9.42824 z"
     style="font-style:normal;font-variant:normal;font-weight:800;font-stretch:normal;font-size:90px;font-family:'Quiet Sans';-inkscape-font-specification:'Quiet Sans Ultra-Bold';opacity:1;fill:#529e6e;fill-opacity:1;stroke-width:1.0507381"
     id="path858" />
  <path
     id="path860"
     style="font-style:normal;font-variant:normal;font-weight:800;font-stretch:normal;font-size:90px;font-family:'Quiet Sans';-inkscape-font-specification:'Quiet Sans Ultra-Bold';opacity:1;fill:#529e6e;fill-opacity:1;stroke-width:1.0507381"
     d="m 255.8705,134.85676 c 5.89375,0 9.89713,-3.88226 9.89713,-9.42824 0,-5.54608 -4.00338,-9.53901 -9.89713,-9.53901 -5.67124,0 -9.78582,3.99293 -9.78582,9.53901 0,5.54598 4.11458,9.42824 9.78582,9.42824 z" />
</svg>
