<?xml version="1.0" encoding="UTF-8" standalone="no"?>
<svg
   xmlns:dc="http://purl.org/dc/elements/1.1/"
   xmlns:cc="http://creativecommons.org/ns#"
   xmlns:rdf="http://www.w3.org/1999/02/22-rdf-syntax-ns#"
   xmlns:svg="http://www.w3.org/2000/svg"
   xmlns="http://www.w3.org/2000/svg"
   xmlns:xlink="http://www.w3.org/1999/xlink"
   width="320.00003"
   height="320"
   viewBox="0 0 320.00002 320.00001"
   id="fm"
   version="1.1">
  <defs
     id="defs8054">
    <linearGradient
       id="linearGradient7345">
      <stop
         style="stop-color:#4b686d;stop-opacity:1"
         offset="0"
         id="stop7347" />
      <stop
         style="stop-color:#424242;stop-opacity:1"
         offset="1"
         id="stop7349" />
    </linearGradient>
    <linearGradient
       id="linearGradient8213">
      <stop
         id="stop8215"
         offset="0"
         style="stop-color:#43085c;stop-opacity:1" />
      <stop
         id="stop8217"
         offset="1"
         style="stop-color:#ac0eee;stop-opacity:1" />
    </linearGradient>
    <linearGradient
       xlink:href="#linearGradient8213"
       id="linearGradient8810"
       x1="1819.3149"
       y1="-2100.9199"
       x2="1924.3547"
       y2="-2100.9199"
       gradientUnits="userSpaceOnUse"
       gradientTransform="translate(-886.2916,53.569259)" />
    <linearGradient
       xlink:href="#linearGradient7345"
       id="linearGradient8832"
       x1="1451.2112"
       y1="-2325.9897"
       x2="1504.9647"
       y2="-2325.9897"
       gradientUnits="userSpaceOnUse"
       gradientTransform="translate(438.02785,-211.61851)" />
    <linearGradient
       xlink:href="#linearGradient8213"
       id="linearGradient8854"
       x1="1673.6783"
       y1="-2075.1802"
       x2="1739.5026"
       y2="-2075.1802"
       gradientUnits="userSpaceOnUse"
       gradientTransform="translate(206.89775,89.180582)" />
    <linearGradient
       xlink:href="#linearGradient7345"
       id="linearGradient10096"
       gradientUnits="userSpaceOnUse"
       gradientTransform="translate(1761.134,-1452.6983)"
       x1="1451.2112"
       y1="-2325.9897"
       x2="1504.9647"
       y2="-2325.9897" />
    <linearGradient
       xlink:href="#linearGradient7345"
       id="linearGradient10098"
       gradientUnits="userSpaceOnUse"
       gradientTransform="translate(1772.4199,-1240.6673)"
       x1="1440.5804"
       y1="-2555.4126"
       x2="1453.3149"
       y2="-2555.4126" />
    <linearGradient
       xlink:href="#linearGradient8213"
       id="linearGradient1663"
       gradientUnits="userSpaceOnUse"
       gradientTransform="matrix(1.8823531,0,0,1.8823531,-2548.5946,-2247.9433)"
       x1="1449.5658"
       y1="-2308.1187"
       x2="1526.597"
       y2="-2313.4312" />
  </defs>
  <metadata
     id="metadata8057">
    <rdf:RDF>
      <cc:Work
         rdf:about="">
        <dc:format>image/svg+xml</dc:format>
        <dc:type
           rdf:resource="http://purl.org/dc/dcmitype/StillImage" />
        <dc:title></dc:title>
      </cc:Work>
    </rdf:RDF>
  </metadata>
  <ellipse
     ry="160"
     rx="160.00002"
     style="color:#000000;clip-rule:nonzero;display:inline;overflow:visible;visibility:visible;opacity:1;isolation:auto;mix-blend-mode:normal;color-interpolation:sRGB;color-interpolation-filters:linearRGB;solid-color:#000000;solid-opacity:1;fill:#fffd85;fill-opacity:1;fill-rule:nonzero;stroke:none;stroke-width:31.50964546;stroke-linecap:butt;stroke-linejoin:miter;stroke-miterlimit:4;stroke-dasharray:none;stroke-dashoffset:0;stroke-opacity:1;color-rendering:auto;image-rendering:auto;shape-rendering:auto;text-rendering:auto;enable-background:accumulate"
     id="bg"
     cx="160.00002"
     cy="160.00021" />
  <g
     id="trt"
     style="font-style:normal;font-weight:normal;font-size:22.58823776px;line-height:0%;font-family:sans-serif;letter-spacing:0px;word-spacing:0px;fill:#455052;fill-opacity:1;stroke:none;stroke-width:1.88235307px;stroke-linecap:butt;stroke-linejoin:miter;stroke-opacity:1"
     aria-label="TRT">
    <path
       id="path835"
       style="font-style:normal;font-variant:normal;font-weight:800;font-stretch:normal;font-size:53.33333206px;line-height:1.25;font-family:'Quiet Sans';-inkscape-font-specification:'Quiet Sans Ultra-Bold';fill:#455052;fill-opacity:1;stroke-width:1.88235307px"
       d="m 42.08,177.60031 h 9.44 v -26.72 H 61.6 v -8.48 H 32 v 8.48 h 10.08 z" />
    <path
       id="path837"
       style="font-style:normal;font-variant:normal;font-weight:800;font-stretch:normal;font-size:53.33333206px;line-height:1.25;font-family:'Quiet Sans';-inkscape-font-specification:'Quiet Sans Ultra-Bold';fill:#455052;fill-opacity:1;stroke-width:1.88235307px"
       d="m 65.304166,177.60031 h 9.44 v -12.05333 h 3.04 l 7.2,12.05333 h 11.253333 l -8.586667,-13.28 c 4.16,-1.70667 6.24,-5.17333 6.24,-10.34666 0,-7.62667 -4.533333,-11.57334 -13.493333,-11.57334 H 65.304166 Z m 9.44,-19.62666 v -7.57334 h 5.013333 c 3.146667,0 4.533333,1.17334 4.533333,3.78667 0,2.61333 -1.386666,3.78667 -4.533333,3.78667 z" />
    <path
       id="path839"
       style="font-style:normal;font-variant:normal;font-weight:800;font-stretch:normal;font-size:53.33333206px;line-height:1.25;font-family:'Quiet Sans';-inkscape-font-specification:'Quiet Sans Ultra-Bold';fill:#455052;fill-opacity:1;stroke-width:1.88235307px"
       d="m 106.455,177.60031 h 9.44 v -26.72 h 10.08 v -8.48 h -29.6 v 8.48 h 10.08 z" />
  </g>
  <g
     id="fm"
     style="font-style:normal;font-weight:normal;font-size:133.33332825px;line-height:0%;font-family:sans-serif;letter-spacing:0px;word-spacing:0px;fill:#455052;fill-opacity:1;stroke:none;stroke-width:1.88235307px;stroke-linecap:butt;stroke-linejoin:miter;stroke-opacity:1"
     aria-label="fm">
    <path
       id="path842"
       style="font-style:italic;font-variant:normal;font-weight:200;font-stretch:normal;font-size:133.33332825px;line-height:1.25;font-family:'Quiet Sans';-inkscape-font-specification:'Quiet Sans Ultra-Light Italic';fill:#455052;fill-opacity:1;stroke-width:1.88235307px"
       d="m 139.64588,223.26688 h 4 l 14.66666,-83.2 h 19.2 l 0.53334,-3.6 h -19.06667 l 3.86667,-22 c 1.86666,-10.66666 7.73333,-14.13333 15.6,-14.13333 3.73333,0 7.06666,0.8 9.33333,2.66667 l 0.66667,-3.866669 c -2.4,-1.333334 -5.73334,-2.4 -10.26667,-2.4 -10.26667,0 -17.2,5.466669 -19.33333,17.599999 l -3.86667,22.13333 h -12.26667 l -0.53333,3.6 h 12.13333 z" />
    <path
       id="path844"
       style="font-style:italic;font-variant:normal;font-weight:200;font-stretch:normal;font-size:133.33332825px;line-height:1.25;font-family:'Quiet Sans';-inkscape-font-specification:'Quiet Sans Ultra-Light Italic';fill:#455052;fill-opacity:1;stroke-width:1.88235307px"
       d="m 180.46671,193.00021 h 4 l 7.33333,-41.06666 c 6.8,-9.06667 14.66667,-13.46667 23.2,-13.46667 8.26667,0 12.53333,4.26667 12.53333,13.06667 0,1.86667 0,3.6 -0.4,5.86666 l -6.26666,35.6 h 4 l 6.13333,-34.8 c 0.53333,-3.06666 0.66667,-5.06666 0.66667,-6.79999 v -0.8 c 6.53333,-8.13334 14.8,-12.13334 23.33333,-12.13334 8.53333,0 12.93333,3.86667 12.93333,12.93334 0,1.6 0,3.73333 -0.4,5.99999 l -6.26666,35.6 h 4 l 6.13333,-34.8 c 0.53333,-2.93333 0.66667,-5.06666 0.66667,-6.79999 0,-11.2 -5.86667,-16.53334 -16.8,-16.53334 -9.33334,0 -17.6,3.86667 -24.13334,11.46667 -1.6,-7.86667 -7.33333,-11.46667 -16,-11.46667 -9.2,0 -16.4,4.26667 -22.39999,10.93334 l 1.2,-9.33334 h -3.46667 z" />
  </g>
</svg>
