<?xml version="1.0" encoding="UTF-8" standalone="no"?>
<svg
   xmlns:dc="http://purl.org/dc/elements/1.1/"
   xmlns:cc="http://creativecommons.org/ns#"
   xmlns:rdf="http://www.w3.org/1999/02/22-rdf-syntax-ns#"
   xmlns:svg="http://www.w3.org/2000/svg"
   xmlns="http://www.w3.org/2000/svg"
   xmlns:xlink="http://www.w3.org/1999/xlink"
   width="320.00003"
   height="320"
   viewBox="0 0 320.00002 320.00001"
   id="svg8052"
   version="1.1">
  <defs
     id="defs8054">
    <linearGradient
       id="linearGradient7345">
      <stop
         style="stop-color:#4b686d;stop-opacity:1"
         offset="0"
         id="stop7347" />
      <stop
         style="stop-color:#424242;stop-opacity:1"
         offset="1"
         id="stop7349" />
    </linearGradient>
    <linearGradient
       id="linearGradient8213">
      <stop
         id="stop8215"
         offset="0"
         style="stop-color:#43085c;stop-opacity:1" />
      <stop
         id="stop8217"
         offset="1"
         style="stop-color:#ac0eee;stop-opacity:1" />
    </linearGradient>
    <linearGradient
       xlink:href="#linearGradient8213"
       id="linearGradient8810"
       x1="1819.3149"
       y1="-2100.9199"
       x2="1924.3547"
       y2="-2100.9199"
       gradientUnits="userSpaceOnUse"
       gradientTransform="translate(-886.2916,53.569259)" />
    <linearGradient
       xlink:href="#linearGradient7345"
       id="linearGradient8832"
       x1="1451.2112"
       y1="-2325.9897"
       x2="1504.9647"
       y2="-2325.9897"
       gradientUnits="userSpaceOnUse"
       gradientTransform="translate(438.02785,-211.61851)" />
    <linearGradient
       xlink:href="#linearGradient8213"
       id="linearGradient8854"
       x1="1673.6783"
       y1="-2075.1802"
       x2="1739.5026"
       y2="-2075.1802"
       gradientUnits="userSpaceOnUse"
       gradientTransform="translate(206.89775,89.180582)" />
    <linearGradient
       xlink:href="#linearGradient7345"
       id="linearGradient10096"
       gradientUnits="userSpaceOnUse"
       gradientTransform="translate(1761.134,-1452.6983)"
       x1="1451.2112"
       y1="-2325.9897"
       x2="1504.9647"
       y2="-2325.9897" />
    <linearGradient
       xlink:href="#linearGradient7345"
       id="linearGradient10098"
       gradientUnits="userSpaceOnUse"
       gradientTransform="translate(1772.4199,-1240.6673)"
       x1="1440.5804"
       y1="-2555.4126"
       x2="1453.3149"
       y2="-2555.4126" />
    <linearGradient
       xlink:href="#linearGradient8213"
       id="linearGradient1663"
       gradientUnits="userSpaceOnUse"
       gradientTransform="matrix(1.8823531,0,0,1.8823531,-2548.5946,-2247.9433)"
       x1="1449.5658"
       y1="-2308.1187"
       x2="1526.597"
       y2="-2313.4312" />
    <linearGradient
       y2="-2325.9897"
       x2="1504.9647"
       y1="-2325.9897"
       x1="1451.2112"
       gradientTransform="translate(1761.134,-1452.6983)"
       gradientUnits="userSpaceOnUse"
       id="linearGradient10096-8"
       xlink:href="#linearGradient7345" />
    <linearGradient
       y2="-2555.4126"
       x2="1453.3149"
       y1="-2555.4126"
       x1="1440.5804"
       gradientTransform="translate(1772.4199,-1240.6673)"
       gradientUnits="userSpaceOnUse"
       id="linearGradient10098-7"
       xlink:href="#linearGradient7345" />
  </defs>
  <metadata
     id="metadata8057">
    <rdf:RDF>
      <cc:Work
         rdf:about="">
        <dc:format>image/svg+xml</dc:format>
        <dc:type
           rdf:resource="http://purl.org/dc/dcmitype/StillImage" />
        <dc:title></dc:title>
      </cc:Work>
    </rdf:RDF>
  </metadata>
  <ellipse
     ry="160"
     rx="160.00002"
     style="color:#000000;clip-rule:nonzero;display:inline;overflow:visible;visibility:visible;opacity:1;isolation:auto;mix-blend-mode:normal;color-interpolation:sRGB;color-interpolation-filters:linearRGB;solid-color:#000000;solid-opacity:1;fill:#ffcdcd;fill-opacity:1;fill-rule:nonzero;stroke:none;stroke-width:31.50964546;stroke-linecap:butt;stroke-linejoin:miter;stroke-miterlimit:4;stroke-dasharray:none;stroke-dashoffset:0;stroke-opacity:1;color-rendering:auto;image-rendering:auto;shape-rendering:auto;text-rendering:auto;enable-background:accumulate"
     id="bg"
     cx="160.00003"
     cy="159.99973" />
  <g
     transform="translate(-24.35996,6695.2044)"
     id="g3379">
    <g
       id="trtradyo"
       style="font-style:normal;font-weight:normal;font-size:22.58823776px;line-height:0%;font-family:sans-serif;letter-spacing:0px;word-spacing:0px;fill:#384042;fill-opacity:1;stroke:none;stroke-width:1.88235307px;stroke-linecap:butt;stroke-linejoin:miter;stroke-opacity:1"
       aria-label="TRT RADYO">
      <path
         id="path856"
         style="font-style:normal;font-variant:normal;font-weight:800;font-stretch:normal;font-family:'Quiet Sans';-inkscape-font-specification:'Quiet Sans Ultra-Bold';fill:#384042;fill-opacity:1;stroke-width:1.88235307px"
         d="m 54.403234,-6577.0312 h 5.107285 v -14.4563 h 5.45354 v -4.5879 H 48.949693 v 4.5879 h 5.453541 z" />
      <path
         id="path858"
         style="font-style:normal;font-variant:normal;font-weight:800;font-stretch:normal;font-family:'Quiet Sans';-inkscape-font-specification:'Quiet Sans Ultra-Bold';fill:#384042;fill-opacity:1;stroke-width:1.88235307px"
         d="m 66.968109,-6577.0312 h 5.107284 v -6.5212 h 1.644719 l 3.895386,6.5212 h 6.088344 l -4.645609,-7.1849 c 2.250668,-0.9233 3.376002,-2.7989 3.376002,-5.5978 0,-4.1262 -2.452651,-6.2615 -7.300243,-6.2615 h -8.165883 z m 5.107284,-10.6186 v -4.0974 h 2.712343 c 1.702428,0 2.452651,0.6348 2.452651,2.0487 0,1.4139 -0.750223,2.0487 -2.452651,2.0487 z" />
      <path
         id="path860"
         style="font-style:normal;font-variant:normal;font-weight:800;font-stretch:normal;font-family:'Quiet Sans';-inkscape-font-specification:'Quiet Sans Ultra-Bold';fill:#384042;fill-opacity:1;stroke-width:1.88235307px"
         d="m 89.231775,-6577.0312 h 5.107284 v -14.4563 H 99.7926 v -4.5879 H 83.778234 v 4.5879 h 5.453541 z" />
      <path
         id="path862"
         style="font-style:normal;font-variant:normal;font-weight:300;font-stretch:normal;font-family:'Quiet Sans';-inkscape-font-specification:'Quiet Sans Light';fill:#384042;fill-opacity:1;stroke-width:1.88235307px"
         d="m 108.01484,-6577.0312 h 1.67357 v -8.3102 h 5.74209 l 6.40575,8.3102 h 2.10639 l -6.46345,-8.3679 c 3.31829,-0.3751 5.04957,-2.1641 5.04957,-5.3093 0,-3.578 -2.19296,-5.367 -6.4346,-5.367 h -8.07932 z m 1.67357,-9.8395 v -7.6754 h 6.40575 c 3.23173,0 4.73217,1.2408 4.73217,3.8377 0,2.5969 -1.50044,3.8377 -4.73217,3.8377 z" />
      <path
         id="path864"
         style="font-style:normal;font-variant:normal;font-weight:300;font-stretch:normal;font-family:'Quiet Sans';-inkscape-font-specification:'Quiet Sans Light';fill:#384042;fill-opacity:1;stroke-width:1.88235307px"
         d="m 124.23975,-6577.0312 h 1.73129 l 2.22181,-5.0785 h 10.128 l 2.19296,5.0785 h 1.78899 l -8.31015,-19.0442 h -1.44274 z m 4.61676,-6.6078 4.38591,-10.2145 4.38592,10.2145 z" />
      <path
         id="path866"
         style="font-style:normal;font-variant:normal;font-weight:300;font-stretch:normal;font-family:'Quiet Sans';-inkscape-font-specification:'Quiet Sans Light';fill:#384042;fill-opacity:1;stroke-width:1.88235307px"
         d="m 145.0413,-6577.0312 h 5.88636 c 6.60773,0 10.3877,-3.4915 10.3877,-9.5221 0,-6.0595 -3.77997,-9.5221 -10.3877,-9.5221 h -5.88636 z m 1.67357,-1.5293 v -15.9856 h 4.18394 c 5.65552,0 8.71412,2.8278 8.71412,7.9928 0,5.165 -3.0586,7.9928 -8.71412,7.9928 z" />
      <path
         id="path868"
         style="font-style:normal;font-variant:normal;font-weight:300;font-stretch:normal;font-family:'Quiet Sans';-inkscape-font-specification:'Quiet Sans Light';fill:#384042;fill-opacity:1;stroke-width:1.88235307px"
         d="m 168.73012,-6577.0312 h 1.67357 v -8.6276 l 7.50223,-10.4166 h -1.96212 l -6.34804,8.8007 -6.31918,-8.8007 h -2.04869 l 7.50223,10.4454 z" />
      <path
         id="path870"
         style="font-style:normal;font-variant:normal;font-weight:300;font-stretch:normal;font-family:'Quiet Sans';-inkscape-font-specification:'Quiet Sans Light';fill:#384042;fill-opacity:1;stroke-width:1.88235307px"
         d="m 187.73184,-6576.685 c 5.7998,0 9.83946,-4.0974 9.83946,-9.8683 0,-5.7998 -4.03966,-9.8683 -9.83946,-9.8683 -5.79979,0 -9.86831,4.0685 -9.86831,9.8683 0,5.7709 4.06852,9.8683 9.86831,9.8683 z m 0,-1.5581 c -4.81873,0 -8.16588,-3.4338 -8.16588,-8.3102 0,-4.9053 3.34715,-8.3102 8.16588,-8.3102 4.81874,0 8.13703,3.4049 8.13703,8.3102 0,4.8764 -3.31829,8.3102 -8.13703,8.3102 z" />
    </g>
    <path
       id="o"
       style="font-style:normal;font-variant:normal;font-weight:800;font-stretch:normal;font-size:90px;font-family:'Quiet Sans';-inkscape-font-specification:'Quiet Sans Ultra-Bold';fill:#b53d3d;fill-opacity:1;stroke-width:1.88235307"
       d="m 188.4358,-6575.4533 c 6.57129,0 11.0351,-4.3396 11.0351,-10.5386 0,-6.1999 -4.46381,-10.6633 -11.0351,-10.6633 -6.32377,0 -10.91125,4.4634 -10.91125,10.6633 0,6.199 4.58748,10.5386 10.91125,10.5386 z" />
  </g>
  <g
     id="haber"
     style="font-style:normal;font-variant:normal;font-weight:800;font-stretch:normal;font-size:22.58823776px;line-height:0%;font-family:'Quiet Sans';-inkscape-font-specification:'Quiet Sans Ultra-Bold';letter-spacing:0px;word-spacing:0px;fill:#b43c3c;fill-opacity:1;stroke:none;stroke-width:1.88235307px;stroke-linecap:butt;stroke-linejoin:miter;stroke-opacity:1"
     aria-label="HABER">
    <path
       id="path845"
       style="font-style:normal;font-variant:normal;font-weight:800;font-stretch:normal;font-size:84.70588684px;line-height:1.25;font-family:'Quiet Sans';-inkscape-font-specification:'Quiet Sans Ultra-Bold';fill:#b43c3c;fill-opacity:1;stroke-width:1.88235307px"
       d="m 24.589734,187.95285 h 14.992941 v -21.51529 h 18.974119 v 21.51529 H 73.549736 V 132.04697 H 58.556794 v 20.83764 H 39.582675 V 132.04697 H 24.589734 Z" />
    <path
       id="path847"
       style="font-style:normal;font-variant:normal;font-weight:800;font-stretch:normal;font-size:84.70588684px;line-height:1.25;font-family:'Quiet Sans';-inkscape-font-specification:'Quiet Sans Ultra-Bold';fill:#b43c3c;fill-opacity:1;stroke-width:1.88235307px"
       d="m 77.699,187.95285 h 15.585883 l 3.218824,-9.65647 h 18.296473 l 3.21882,9.65647 h 16.34824 L 113.44488,132.04697 H 98.621354 Z m 22.78588,-21.85412 5.16706,-17.28 5.16706,17.28 z" />
    <path
       id="path849"
       style="font-style:normal;font-variant:normal;font-weight:800;font-stretch:normal;font-size:84.70588684px;line-height:1.25;font-family:'Quiet Sans';-inkscape-font-specification:'Quiet Sans Ultra-Bold';fill:#b43c3c;fill-opacity:1;stroke-width:1.88235307px"
       d="m 138.41327,187.95285 h 28.63059 c 11.52,0 18.38117,-5.67529 18.38117,-16.09412 0,-6.94588 -3.04941,-11.77412 -9.06353,-13.80706 v -0.16941 c 4.06589,-2.11765 6.09883,-5.92941 6.09883,-11.26588 0,-9.48706 -6.26824,-14.56941 -18.46589,-14.56941 h -25.58117 z m 14.99294,-33.79765 v -9.74118 h 8.55529 c 4.32,0 5.84471,1.27059 5.84471,4.74353 0,3.64236 -1.69412,4.99765 -6.26824,4.99765 z m 0,21.43059 v -9.82588 h 9.65647 c 5.42118,0 7.36941,1.35529 7.36941,5.08235 0,3.47294 -1.69412,4.74353 -6.52235,4.74353 z" />
    <path
       id="path851"
       style="font-style:normal;font-variant:normal;font-weight:800;font-stretch:normal;font-size:84.70588684px;line-height:1.25;font-family:'Quiet Sans';-inkscape-font-specification:'Quiet Sans Ultra-Bold';fill:#b43c3c;fill-opacity:1;stroke-width:1.88235307px"
       d="m 193.83607,187.95285 h 43.62353 v -13.29882 h -28.63059 v -8.80942 h 23.63295 v -12.45176 h -23.63295 v -8.04706 h 27.69883 v -13.29882 h -42.69177 z" />
    <path
       id="path853"
       style="font-style:normal;font-variant:normal;font-weight:800;font-stretch:normal;font-size:84.70588684px;line-height:1.25;font-family:'Quiet Sans';-inkscape-font-specification:'Quiet Sans Ultra-Bold';fill:#b43c3c;fill-opacity:1;stroke-width:1.88235307px"
       d="m 246.28093,187.95285 h 14.99294 v -19.14353 h 4.82823 l 11.4353,19.14353 h 17.87294 l -13.63765,-21.09177 c 6.60706,-2.71058 9.91059,-8.21647 9.91059,-16.43294 0,-12.11294 -7.2,-18.38117 -21.43059,-18.38117 h -23.97176 z m 14.99294,-31.17177 v -12.02823 h 7.96235 c 4.99765,0 7.2,1.86353 7.2,6.01412 0,4.15058 -2.20235,6.01411 -7.2,6.01411 z" />
  </g>
</svg>
