<?xml version="1.0" encoding="UTF-8" standalone="no"?>
<svg
   xmlns:dc="http://purl.org/dc/elements/1.1/"
   xmlns:cc="http://creativecommons.org/ns#"
   xmlns:rdf="http://www.w3.org/1999/02/22-rdf-syntax-ns#"
   xmlns:svg="http://www.w3.org/2000/svg"
   xmlns="http://www.w3.org/2000/svg"
   xmlns:xlink="http://www.w3.org/1999/xlink"
   width="320.00003"
   height="320"
   viewBox="0 0 320.00002 320.00001"
   id="svg8052"
   version="1.1">
  <defs
     id="defs8054">
    <linearGradient
       id="linearGradient7345">
      <stop
         style="stop-color:#4b686d;stop-opacity:1"
         offset="0"
         id="stop7347" />
      <stop
         style="stop-color:#424242;stop-opacity:1"
         offset="1"
         id="stop7349" />
    </linearGradient>
    <linearGradient
       id="linearGradient8213">
      <stop
         id="stop8215"
         offset="0"
         style="stop-color:#43085c;stop-opacity:1" />
      <stop
         id="stop8217"
         offset="1"
         style="stop-color:#ac0eee;stop-opacity:1" />
    </linearGradient>
    <linearGradient
       xlink:href="#linearGradient8213"
       id="linearGradient8810"
       x1="1819.3149"
       y1="-2100.9199"
       x2="1924.3547"
       y2="-2100.9199"
       gradientUnits="userSpaceOnUse"
       gradientTransform="translate(-886.2916,53.569259)" />
    <linearGradient
       xlink:href="#linearGradient7345"
       id="linearGradient8832"
       x1="1451.2112"
       y1="-2325.9897"
       x2="1504.9647"
       y2="-2325.9897"
       gradientUnits="userSpaceOnUse"
       gradientTransform="translate(438.02785,-211.61851)" />
    <linearGradient
       xlink:href="#linearGradient8213"
       id="linearGradient8854"
       x1="1673.6783"
       y1="-2075.1802"
       x2="1739.5026"
       y2="-2075.1802"
       gradientUnits="userSpaceOnUse"
       gradientTransform="translate(206.89775,89.180582)" />
    <linearGradient
       xlink:href="#linearGradient7345"
       id="linearGradient10096"
       gradientUnits="userSpaceOnUse"
       gradientTransform="translate(1761.134,-1452.6983)"
       x1="1451.2112"
       y1="-2325.9897"
       x2="1504.9647"
       y2="-2325.9897" />
    <linearGradient
       xlink:href="#linearGradient7345"
       id="linearGradient10098"
       gradientUnits="userSpaceOnUse"
       gradientTransform="translate(1772.4199,-1240.6673)"
       x1="1440.5804"
       y1="-2555.4126"
       x2="1453.3149"
       y2="-2555.4126" />
    <linearGradient
       xlink:href="#linearGradient8213"
       id="linearGradient1659"
       gradientUnits="userSpaceOnUse"
       gradientTransform="matrix(1.8823532,0,0,1.882353,-2546.8041,4970.188)"
       x1="1440.5804"
       y1="-2555.4126"
       x2="1453.3149"
       y2="-2555.4126" />
    <linearGradient
       xlink:href="#linearGradient8213"
       id="linearGradient1663"
       gradientUnits="userSpaceOnUse"
       gradientTransform="matrix(1.8823531,0,0,1.8823531,-2567.8279,4558.6199)"
       x1="1449.5658"
       y1="-2308.1187"
       x2="1526.597"
       y2="-2313.4312" />
  </defs>
  <metadata
     id="metadata8057">
    <rdf:RDF>
      <cc:Work
         rdf:about="">
        <dc:format>image/svg+xml</dc:format>
        <dc:type
           rdf:resource="http://purl.org/dc/dcmitype/StillImage" />
        <dc:title></dc:title>
      </cc:Work>
    </rdf:RDF>
  </metadata>
  <ellipse
     ry="160"
     rx="160.00002"
     cy="160.00021"
     cx="160.00002"
     id="bg"
     style="color:#000000;clip-rule:nonzero;display:inline;overflow:visible;visibility:visible;opacity:1;isolation:auto;mix-blend-mode:normal;color-interpolation:sRGB;color-interpolation-filters:linearRGB;solid-color:#000000;solid-opacity:1;fill:#f0cdff;fill-opacity:1;fill-rule:nonzero;stroke:none;stroke-width:31.50964546;stroke-linecap:butt;stroke-linejoin:miter;stroke-miterlimit:4;stroke-dasharray:none;stroke-dashoffset:0;stroke-opacity:1;color-rendering:auto;image-rendering:auto;shape-rendering:auto;text-rendering:auto;enable-background:accumulate" />
  <g
     id="trtradyo"
     style="font-style:normal;font-weight:normal;font-size:22.58823776px;line-height:0%;font-family:sans-serif;letter-spacing:0px;word-spacing:0px;opacity:0.97000002;fill:#455052;fill-opacity:1;stroke:none;stroke-width:1.88235307px;stroke-linecap:butt;stroke-linejoin:miter;stroke-opacity:1"
     aria-label="TRT RADYO">
    <path
       id="path845"
       style="font-style:normal;font-variant:normal;font-weight:800;font-stretch:normal;font-family:'Quiet Sans';-inkscape-font-specification:'Quiet Sans Ultra-Bold';fill:#455052;fill-opacity:1;stroke-width:1.88235307px"
       d="m 22.289069,170.98019 h 5.889746 v -16.67097 h 6.289051 v -5.29079 H 16.000018 v 5.29079 h 6.289051 z" />
    <path
       id="path847"
       style="font-style:normal;font-variant:normal;font-weight:800;font-stretch:normal;font-family:'Quiet Sans';-inkscape-font-specification:'Quiet Sans Ultra-Bold';fill:#455052;fill-opacity:1;stroke-width:1.88235307px"
       d="m 36.778946,170.98019 h 5.889746 v -7.52024 h 1.896698 l 4.492179,7.52024 h 7.02111 l -5.357339,-8.28557 c 2.595481,-1.06481 3.893222,-3.22772 3.893222,-6.45543 0,-4.75838 -2.82841,-7.22076 -8.418677,-7.22076 h -9.416939 z m 5.889746,-12.24534 v -4.72511 h 3.127888 c 1.963249,0 2.828409,0.73206 2.828409,2.36255 0,1.6305 -0.86516,2.36256 -2.828409,2.36256 z" />
    <path
       id="path849"
       style="font-style:normal;font-variant:normal;font-weight:800;font-stretch:normal;font-family:'Quiet Sans';-inkscape-font-specification:'Quiet Sans Ultra-Bold';fill:#455052;fill-opacity:1;stroke-width:1.88235307px"
       d="m 62.453521,170.98019 h 5.889746 v -16.67097 h 6.289051 v -5.29079 H 56.16447 v 5.29079 h 6.289051 z" />
    <path
       id="path851"
       style="font-style:normal;font-variant:normal;font-weight:300;font-stretch:normal;font-family:'Quiet Sans';-inkscape-font-specification:'Quiet Sans Light';fill:#455052;fill-opacity:1;stroke-width:1.88235307px"
       d="m 84.114243,170.98019 h 1.929973 v -9.58331 h 6.621805 l 7.387139,9.58331 h 2.4291 l -7.453685,-9.64986 c 3.826671,-0.43258 5.823195,-2.49566 5.823195,-6.12268 0,-4.12615 -2.52893,-6.18922 -7.420415,-6.18922 h -9.317112 z m 1.929973,-11.34691 v -8.85125 h 7.387139 c 3.726845,0 5.457166,1.43084 5.457166,4.42562 0,2.99479 -1.730321,4.42563 -5.457166,4.42563 z" />
    <path
       id="path853"
       style="font-style:normal;font-variant:normal;font-weight:300;font-stretch:normal;font-family:'Quiet Sans';-inkscape-font-specification:'Quiet Sans Light';fill:#455052;fill-opacity:1;stroke-width:1.88235307px"
       d="m 102.8249,170.98019 h 1.99653 l 2.5622,-5.85647 h 11.67967 l 2.52893,5.85647 h 2.06307 l -9.58331,-21.96176 h -1.66377 z m 5.32407,-7.62006 5.05786,-11.7795 5.05786,11.7795 z" />
    <path
       id="path855"
       style="font-style:normal;font-variant:normal;font-weight:300;font-stretch:normal;font-family:'Quiet Sans';-inkscape-font-specification:'Quiet Sans Light';fill:#455052;fill-opacity:1;stroke-width:1.88235307px"
       d="m 126.81335,170.98019 h 6.78818 c 7.62007,0 11.97914,-4.02632 11.97914,-10.98088 0,-6.98783 -4.35907,-10.98088 -11.97914,-10.98088 h -6.78818 z m 1.92997,-1.76359 v -18.43457 h 4.82493 c 6.52198,0 10.04918,3.26098 10.04918,9.21728 0,5.9563 -3.5272,9.21729 -10.04918,9.21729 z" />
    <path
       id="path857"
       style="font-style:normal;font-variant:normal;font-weight:300;font-stretch:normal;font-family:'Quiet Sans';-inkscape-font-specification:'Quiet Sans Light';fill:#455052;fill-opacity:1;stroke-width:1.88235307px"
       d="m 154.1314,170.98019 h 1.92998 v -9.94934 l 8.6516,-12.01242 h -2.26272 l -7.32059,10.149 -7.28732,-10.149 h -2.36255 l 8.6516,12.04569 z" />
    <path
       id="path859"
       style="font-style:normal;font-variant:normal;font-weight:300;font-stretch:normal;font-family:'Quiet Sans';-inkscape-font-specification:'Quiet Sans Light';fill:#455052;fill-opacity:1;stroke-width:1.88235307px"
       d="m 176.0443,171.3795 c 6.68835,0 11.34691,-4.72511 11.34691,-11.38019 0,-6.68835 -4.65856,-11.38019 -11.34691,-11.38019 -6.68836,0 -11.38019,4.69184 -11.38019,11.38019 0,6.65508 4.69183,11.38019 11.38019,11.38019 z m 0,-1.79687 c -5.55699,0 -9.41694,-3.95978 -9.41694,-9.58332 0,-5.65682 3.85995,-9.58331 9.41694,-9.58331 5.55699,0 9.38366,3.92649 9.38366,9.58331 0,5.62354 -3.82667,9.58332 -9.38366,9.58332 z" />
  </g>
  <g
     id="3"
     style="font-style:normal;font-weight:normal;font-size:22.58823776px;line-height:0%;font-family:sans-serif;letter-spacing:0px;word-spacing:0px;opacity:0.98500001;fill:url(#linearGradient1663);fill-opacity:1;stroke:none;stroke-width:1.88235307px;stroke-linecap:butt;stroke-linejoin:miter;stroke-opacity:1"
     aria-label="3">
    <path
       id="path862"
       style="font-style:normal;font-variant:normal;font-weight:normal;font-stretch:normal;font-size:334.77050781px;line-height:1.25;font-family:'Playfair Display';-inkscape-font-specification:'Playfair Display';fill:url(#linearGradient1663);fill-opacity:1;stroke-width:1.88235307px"
       d="m 224.16477,91.217162 q 21.09054,0 34.48136,10.377888 13.72559,10.37788 13.72559,27.78595 0,18.41238 -14.7299,33.14228 -14.39514,14.7299 -35.15091,22.09485 25.77733,0.66954 43.85494,13.72559 18.07761,13.05605 18.07761,37.15953 0,24.10348 -18.74715,43.1854 -18.41238,19.08192 -47.20264,29.4598 -28.4555,10.71266 -57.9153,10.71266 v -6.02587 q 23.7687,-0.66954 44.85925,-10.04312 21.09054,-9.0388 34.14659,-26.44687 13.05605,-17.07329 13.05605,-40.842 0,-19.75146 -9.70835,-32.47274 -9.70834,-13.05605 -25.77733,-14.39513 -1.33908,0.66954 -7.03018,3.01293 -5.35632,2.00863 -8.70403,2.00863 -5.35633,0 -5.35633,-4.35202 0,-3.01293 2.3434,-4.68679 2.67816,-1.67385 6.36064,-1.67385 2.00862,0 5.35632,0.66954 3.68248,0.33477 6.36064,0.66954 13.05605,-10.04311 19.41669,-22.42962 6.36064,-12.38651 6.36064,-25.77733 0,-15.39944 -7.69972,-22.76439 -7.69972,-7.36496 -21.42531,-7.36496 -14.06036,0 -25.44256,7.69973 -11.3822,7.36495 -19.08192,22.09485 l -5.6911,-2.67816 q 19.41669,-41.846318 61.26301,-41.846318 z" />
  </g>
  <ellipse
     ry="13.176471"
     rx="13.176473"
     style="color:#000000;clip-rule:nonzero;display:inline;overflow:visible;visibility:visible;opacity:1;isolation:auto;mix-blend-mode:normal;color-interpolation:sRGB;color-interpolation-filters:linearRGB;solid-color:#000000;solid-opacity:1;fill:url(#linearGradient1659);fill-opacity:1;fill-rule:nonzero;stroke:none;stroke-width:31.50964546;stroke-linecap:butt;stroke-linejoin:miter;stroke-miterlimit:4;stroke-dasharray:none;stroke-dashoffset:0;stroke-opacity:1;color-rendering:auto;image-rendering:auto;shape-rendering:auto;text-rendering:auto;enable-background:accumulate"
     id="o"
     cx="176.86261"
     cy="160.00021" />
</svg>
