<?xml version="1.0" encoding="UTF-8" standalone="no"?>
<svg
   xmlns:dc="http://purl.org/dc/elements/1.1/"
   xmlns:cc="http://creativecommons.org/ns#"
   xmlns:rdf="http://www.w3.org/1999/02/22-rdf-syntax-ns#"
   xmlns:svg="http://www.w3.org/2000/svg"
   xmlns="http://www.w3.org/2000/svg"
   xmlns:xlink="http://www.w3.org/1999/xlink"
   width="320.00003"
   height="320"
   viewBox="0 0 320.00002 320.00001"
   id="svg8052"
   version="1.1">
  <defs
     id="defs8054">
    <linearGradient
       id="linearGradient7345">
      <stop
         style="stop-color:#4b686d;stop-opacity:1"
         offset="0"
         id="stop7347" />
      <stop
         style="stop-color:#424242;stop-opacity:1"
         offset="1"
         id="stop7349" />
    </linearGradient>
    <linearGradient
       id="linearGradient8213">
      <stop
         id="stop8215"
         offset="0"
         style="stop-color:#43085c;stop-opacity:1" />
      <stop
         id="stop8217"
         offset="1"
         style="stop-color:#ac0eee;stop-opacity:1" />
    </linearGradient>
    <linearGradient
       xlink:href="#linearGradient8213"
       id="linearGradient8810"
       x1="1819.3149"
       y1="-2100.9199"
       x2="1924.3547"
       y2="-2100.9199"
       gradientUnits="userSpaceOnUse"
       gradientTransform="translate(-886.2916,53.569259)" />
    <linearGradient
       xlink:href="#linearGradient7345"
       id="linearGradient8832"
       x1="1451.2112"
       y1="-2325.9897"
       x2="1504.9647"
       y2="-2325.9897"
       gradientUnits="userSpaceOnUse"
       gradientTransform="translate(438.02785,-211.61851)" />
    <linearGradient
       xlink:href="#linearGradient8213"
       id="linearGradient8854"
       x1="1673.6783"
       y1="-2075.1802"
       x2="1739.5026"
       y2="-2075.1802"
       gradientUnits="userSpaceOnUse"
       gradientTransform="translate(206.89775,89.180582)" />
    <linearGradient
       xlink:href="#linearGradient7345"
       id="linearGradient10096"
       gradientUnits="userSpaceOnUse"
       gradientTransform="translate(1761.134,-1452.6983)"
       x1="1451.2112"
       y1="-2325.9897"
       x2="1504.9647"
       y2="-2325.9897" />
    <linearGradient
       xlink:href="#linearGradient7345"
       id="linearGradient10098"
       gradientUnits="userSpaceOnUse"
       gradientTransform="translate(1772.4199,-1240.6673)"
       x1="1440.5804"
       y1="-2555.4126"
       x2="1453.3149"
       y2="-2555.4126" />
    <linearGradient
       xlink:href="#linearGradient8213"
       id="linearGradient1663"
       gradientUnits="userSpaceOnUse"
       gradientTransform="matrix(1.8823531,0,0,1.8823531,-2548.5946,-2247.9433)"
       x1="1449.5658"
       y1="-2308.1187"
       x2="1526.597"
       y2="-2313.4312" />
    <linearGradient
       y2="-2325.9897"
       x2="1504.9647"
       y1="-2325.9897"
       x1="1451.2112"
       gradientTransform="translate(1761.134,-1452.6983)"
       gradientUnits="userSpaceOnUse"
       id="linearGradient10096-8"
       xlink:href="#linearGradient7345" />
    <linearGradient
       y2="-2555.4126"
       x2="1453.3149"
       y1="-2555.4126"
       x1="1440.5804"
       gradientTransform="translate(1772.4199,-1240.6673)"
       gradientUnits="userSpaceOnUse"
       id="linearGradient10098-7"
       xlink:href="#linearGradient7345" />
  </defs>
  <metadata
     id="metadata8057">
    <rdf:RDF>
      <cc:Work
         rdf:about="">
        <dc:format>image/svg+xml</dc:format>
        <dc:type
           rdf:resource="http://purl.org/dc/dcmitype/StillImage" />
        <dc:title></dc:title>
      </cc:Work>
    </rdf:RDF>
  </metadata>
  <ellipse
     ry="160"
     rx="160.00002"
     style="color:#000000;clip-rule:nonzero;display:inline;overflow:visible;visibility:visible;opacity:1;isolation:auto;mix-blend-mode:normal;color-interpolation:sRGB;color-interpolation-filters:linearRGB;solid-color:#000000;solid-opacity:1;fill:#cdf7ff;fill-opacity:1;fill-rule:nonzero;stroke:none;stroke-width:31.50964546;stroke-linecap:butt;stroke-linejoin:miter;stroke-miterlimit:4;stroke-dasharray:none;stroke-dashoffset:0;stroke-opacity:1;color-rendering:auto;image-rendering:auto;shape-rendering:auto;text-rendering:auto;enable-background:accumulate"
     id="bg"
     cx="160.00003"
     cy="159.99973" />
  <g
     transform="translate(-8.805231,6806.5632)"
     id="g3204">
    <g
       id="trtradyo"
       style="font-style:normal;font-weight:normal;font-size:22.58823776px;line-height:0%;font-family:sans-serif;letter-spacing:0px;word-spacing:0px;fill:#384042;fill-opacity:1;stroke:none;stroke-width:1.88235307px;stroke-linecap:butt;stroke-linejoin:miter;stroke-opacity:1"
       aria-label="TRT RADYO">
      <path
         id="path856"
         style="font-style:normal;font-variant:normal;font-weight:800;font-stretch:normal;font-family:'Quiet Sans';-inkscape-font-specification:'Quiet Sans Ultra-Bold';fill:#384042;fill-opacity:1;stroke-width:1.88235307px"
         d="m 43.975134,-6577.0312 h 5.107284 v -14.4563 h 5.453541 v -4.5879 H 38.521593 v 4.5879 h 5.453541 z" />
      <path
         id="path858"
         style="font-style:normal;font-variant:normal;font-weight:800;font-stretch:normal;font-family:'Quiet Sans';-inkscape-font-specification:'Quiet Sans Ultra-Bold';fill:#384042;fill-opacity:1;stroke-width:1.88235307px"
         d="m 56.540008,-6577.0312 h 5.107284 v -6.5212 h 1.644719 l 3.895386,6.5212 h 6.088345 l -4.645609,-7.1849 c 2.250668,-0.9233 3.376001,-2.7989 3.376001,-5.5978 0,-4.1262 -2.45265,-6.2615 -7.300242,-6.2615 h -8.165884 z m 5.107284,-10.6186 v -4.0974 h 2.712343 c 1.702428,0 2.452651,0.6348 2.452651,2.0487 0,1.4139 -0.750223,2.0487 -2.452651,2.0487 z" />
      <path
         id="path860"
         style="font-style:normal;font-variant:normal;font-weight:800;font-stretch:normal;font-family:'Quiet Sans';-inkscape-font-specification:'Quiet Sans Ultra-Bold';fill:#384042;fill-opacity:1;stroke-width:1.88235307px"
         d="m 78.803675,-6577.0312 h 5.107284 v -14.4563 H 89.3645 v -4.5879 H 73.350134 v 4.5879 h 5.453541 z" />
      <path
         id="path862"
         style="font-style:normal;font-variant:normal;font-weight:300;font-stretch:normal;font-family:'Quiet Sans';-inkscape-font-specification:'Quiet Sans Light';fill:#384042;fill-opacity:1;stroke-width:1.88235307px"
         d="m 97.58674,-6577.0312 h 1.673573 v -8.3102 h 5.742087 l 6.40575,8.3102 h 2.10639 l -6.46345,-8.3679 c 3.31829,-0.3751 5.04957,-2.1641 5.04957,-5.3093 0,-3.578 -2.19296,-5.367 -6.4346,-5.367 h -8.07932 z m 1.673573,-9.8395 v -7.6754 h 6.405747 c 3.23173,0 4.73217,1.2408 4.73217,3.8377 0,2.5969 -1.50044,3.8377 -4.73217,3.8377 z" />
      <path
         id="path864"
         style="font-style:normal;font-variant:normal;font-weight:300;font-stretch:normal;font-family:'Quiet Sans';-inkscape-font-specification:'Quiet Sans Light';fill:#384042;fill-opacity:1;stroke-width:1.88235307px"
         d="m 113.81165,-6577.0312 h 1.73129 l 2.22181,-5.0785 h 10.128 l 2.19296,5.0785 h 1.78899 l -8.31015,-19.0442 h -1.44274 z m 4.61676,-6.6078 4.38591,-10.2145 4.38592,10.2145 z" />
      <path
         id="path866"
         style="font-style:normal;font-variant:normal;font-weight:300;font-stretch:normal;font-family:'Quiet Sans';-inkscape-font-specification:'Quiet Sans Light';fill:#384042;fill-opacity:1;stroke-width:1.88235307px"
         d="m 134.6132,-6577.0312 h 5.88636 c 6.60773,0 10.3877,-3.4915 10.3877,-9.5221 0,-6.0595 -3.77997,-9.5221 -10.3877,-9.5221 h -5.88636 z m 1.67357,-1.5293 v -15.9856 h 4.18394 c 5.65552,0 8.71412,2.8278 8.71412,7.9928 0,5.165 -3.0586,7.9928 -8.71412,7.9928 z" />
      <path
         id="path868"
         style="font-style:normal;font-variant:normal;font-weight:300;font-stretch:normal;font-family:'Quiet Sans';-inkscape-font-specification:'Quiet Sans Light';fill:#384042;fill-opacity:1;stroke-width:1.88235307px"
         d="m 158.30202,-6577.0312 h 1.67357 v -8.6276 l 7.50223,-10.4166 h -1.96212 l -6.34804,8.8007 -6.31918,-8.8007 h -2.04869 l 7.50223,10.4454 z" />
      <path
         id="path870"
         style="font-style:normal;font-variant:normal;font-weight:300;font-stretch:normal;font-family:'Quiet Sans';-inkscape-font-specification:'Quiet Sans Light';fill:#384042;fill-opacity:1;stroke-width:1.88235307px"
         d="m 177.30374,-6576.685 c 5.7998,0 9.83946,-4.0974 9.83946,-9.8683 0,-5.7998 -4.03966,-9.8683 -9.83946,-9.8683 -5.79979,0 -9.86831,4.0685 -9.86831,9.8683 0,5.7709 4.06852,9.8683 9.86831,9.8683 z m 0,-1.5581 c -4.81873,0 -8.16588,-3.4338 -8.16588,-8.3102 0,-4.9053 3.34715,-8.3102 8.16588,-8.3102 4.81874,0 8.13703,3.4049 8.13703,8.3102 0,4.8764 -3.31829,8.3102 -8.13703,8.3102 z" />
    </g>
    <path
       id="o"
       style="font-style:normal;font-variant:normal;font-weight:800;font-stretch:normal;font-size:90px;font-family:'Quiet Sans';-inkscape-font-specification:'Quiet Sans Ultra-Bold';fill:#1cc8de;fill-opacity:1;stroke-width:1.88235307"
       d="m 178.0077,-6575.4533 c 6.57129,0 11.0351,-4.3396 11.0351,-10.5386 0,-6.1999 -4.46381,-10.6633 -11.0351,-10.6633 -6.32377,0 -10.91125,4.4634 -10.91125,10.6633 0,6.199 4.58748,10.5386 10.91125,10.5386 z" />
  </g>
  <g
     transform="matrix(0.93723045,0,0,0.93723035,-353.43429,-583.321)"
     id="turku"
     style="font-style:normal;font-weight:normal;font-size:25px;line-height:125%;font-family:Sans;letter-spacing:0px;word-spacing:0px;fill:#1cc8de;fill-opacity:1;stroke:none;stroke-width:1px;stroke-linecap:butt;stroke-linejoin:miter;stroke-opacity:1">
    <path
       id="path10263"
       style="font-style:normal;font-variant:normal;font-weight:800;font-stretch:normal;font-size:90px;font-family:'Quiet Sans';-inkscape-font-specification:'Quiet Sans Ultra-Bold';fill:#1cc8de;fill-opacity:1"
       d="m 425.82157,832.43359 h 15.93 v -45.09 h 17.01 v -14.31 h -49.95 v 14.31 h 17.01 z" />
    <path
       id="path10265"
       style="font-style:normal;font-variant:normal;font-weight:800;font-stretch:normal;font-size:90px;font-family:'Quiet Sans';-inkscape-font-specification:'Quiet Sans Ultra-Bold';fill:#1cc8de;fill-opacity:1"
       d="m 478.78235,768.08359 c 4.77,0 8.01,-3.15 8.01,-7.65 0,-4.5 -3.24,-7.74 -8.01,-7.74 -4.59,0 -7.92,3.24 -7.92,7.74 0,4.5 3.33,7.65 7.92,7.65 z m 19.08,0 c 4.68,0 7.92,-3.15 7.92,-7.65 0,-4.5 -3.24,-7.74 -7.92,-7.74 -4.77,0 -8.01,3.24 -8.01,7.74 0,4.5 3.24,7.65 8.01,7.65 z m -9.54,65.43 c 16.83,0 24.66,-7.56 24.66,-23.49 v -36.99 h -15.21 v 35.91 c 0,6.66 -2.7,9.63 -9,9.63 -6.39,0 -9.27,-3.06 -9.27,-9.63 v -35.91 h -15.93 v 36.99 c 0,15.93 7.92,23.49 24.75,23.49 z" />
    <path
       id="path10267"
       style="font-style:normal;font-variant:normal;font-weight:800;font-stretch:normal;font-size:90px;font-family:'Quiet Sans';-inkscape-font-specification:'Quiet Sans Ultra-Bold';fill:#1cc8de;fill-opacity:1"
       d="m 523.19595,832.43359 h 15.93 v -20.34 h 5.13 l 12.15,20.34 h 18.99 l -14.49,-22.41 c 7.02,-2.88 10.53,-8.73 10.53,-17.46 0,-12.87 -7.65,-19.53 -22.77,-19.53 h -25.47 z m 15.93,-33.12 v -12.78 h 8.46 c 5.31,0 7.65,1.98 7.65,6.39 0,4.41 -2.34,6.39 -7.65,6.39 z" />
    <path
       id="path10269"
       style="font-style:normal;font-variant:normal;font-weight:800;font-stretch:normal;font-size:90px;font-family:'Quiet Sans';-inkscape-font-specification:'Quiet Sans Ultra-Bold';fill:#1cc8de;fill-opacity:1"
       d="m 581.7311,832.43359 h 15.93 v -25.65 l 17.73,25.65 h 19.44 l -21.6,-30.69 21.42,-28.71 h -18.27 l -18.72,25.29 v -25.29 h -15.93 z" />
    <path
       id="path10271"
       style="font-style:normal;font-variant:normal;font-weight:800;font-stretch:normal;font-size:90px;font-family:'Quiet Sans';-inkscape-font-specification:'Quiet Sans Ultra-Bold';fill:#1cc8de;fill-opacity:1"
       d="m 652.63001,768.08359 c 4.77,0 8.01,-3.15 8.01,-7.65 0,-4.5 -3.24,-7.74 -8.01,-7.74 -4.59,0 -7.92,3.24 -7.92,7.74 0,4.5 3.33,7.65 7.92,7.65 z m 19.08,0 c 4.68,0 7.92,-3.15 7.92,-7.65 0,-4.5 -3.24,-7.74 -7.92,-7.74 -4.77,0 -8.01,3.24 -8.01,7.74 0,4.5 3.24,7.65 8.01,7.65 z m -9.54,65.43 c 16.83,0 24.66,-7.56 24.66,-23.49 v -36.99 h -15.21 v 35.91 c 0,6.66 -2.7,9.63 -9,9.63 -6.39,0 -9.27,-3.06 -9.27,-9.63 v -35.91 h -15.93 v 36.99 c 0,15.93 7.92,23.49 24.75,23.49 z" />
  </g>
</svg>
