<?xml version="1.0" encoding="UTF-8" standalone="no"?>
<svg
   xmlns:dc="http://purl.org/dc/elements/1.1/"
   xmlns:cc="http://creativecommons.org/ns#"
   xmlns:rdf="http://www.w3.org/1999/02/22-rdf-syntax-ns#"
   xmlns:svg="http://www.w3.org/2000/svg"
   xmlns="http://www.w3.org/2000/svg"
   xmlns:xlink="http://www.w3.org/1999/xlink"
   version="1.1"
   id="svg8052"
   viewBox="0 0 319.99999 320.00001"
   height="320"
   width="320">
  <defs
     id="defs8054">
    <linearGradient
       id="linearGradient7345">
      <stop
         id="stop7347"
         offset="0"
         style="stop-color:#4b686d;stop-opacity:1" />
      <stop
         id="stop7349"
         offset="1"
         style="stop-color:#424242;stop-opacity:1" />
    </linearGradient>
    <linearGradient
       id="linearGradient8213">
      <stop
         style="stop-color:#43085c;stop-opacity:1"
         offset="0"
         id="stop8215" />
      <stop
         style="stop-color:#ac0eee;stop-opacity:1"
         offset="1"
         id="stop8217" />
    </linearGradient>
    <linearGradient
       gradientTransform="translate(-886.2916,53.569259)"
       gradientUnits="userSpaceOnUse"
       y2="-2100.9199"
       x2="1924.3547"
       y1="-2100.9199"
       x1="1819.3149"
       id="linearGradient8810"
       xlink:href="#linearGradient8213" />
    <linearGradient
       gradientTransform="translate(438.02785,-211.61851)"
       gradientUnits="userSpaceOnUse"
       y2="-2325.9897"
       x2="1504.9647"
       y1="-2325.9897"
       x1="1451.2112"
       id="linearGradient8832"
       xlink:href="#linearGradient7345" />
    <linearGradient
       gradientTransform="translate(206.89775,89.180582)"
       gradientUnits="userSpaceOnUse"
       y2="-2075.1802"
       x2="1739.5026"
       y1="-2075.1802"
       x1="1673.6783"
       id="linearGradient8854"
       xlink:href="#linearGradient8213" />
  </defs>
  <metadata
     id="metadata8057">
    <rdf:RDF>
      <cc:Work
         rdf:about="">
        <dc:format>image/svg+xml</dc:format>
        <dc:type
           rdf:resource="http://purl.org/dc/dcmitype/StillImage" />
        <dc:title></dc:title>
      </cc:Work>
    </rdf:RDF>
  </metadata>
  <path
     id="bg"
     d="m 319.99998,160.00021 a 160,160 0 0 1 -160,160 160,160 0 0 1 -159.999995258789,-160 A 160,160 0 0 1 159.99998,2.1362305e-4 160,160 0 0 1 319.99998,160.00021 Z"
     style="color:#000000;clip-rule:nonzero;display:inline;overflow:visible;visibility:visible;opacity:1;isolation:auto;mix-blend-mode:normal;color-interpolation:sRGB;color-interpolation-filters:linearRGB;solid-color:#000000;solid-opacity:1;fill:#d4000c;fill-opacity:1;fill-rule:nonzero;stroke:none;stroke-width:23.45546913;stroke-linecap:butt;stroke-linejoin:miter;stroke-miterlimit:4;stroke-dasharray:none;stroke-dashoffset:0;stroke-opacity:1;color-rendering:auto;image-rendering:auto;shape-rendering:auto;text-rendering:auto;enable-background:accumulate" />
  <g
     id="text7451-9"
     style="font-style:normal;font-weight:normal;font-size:16.81446075px;line-height:0%;font-family:sans-serif;letter-spacing:0px;word-spacing:0px;fill:#ffffff;fill-opacity:1;stroke:none;stroke-width:1.40120506px;stroke-linecap:butt;stroke-linejoin:miter;stroke-opacity:1"
     aria-label="TRT">
    <path
       id="path832"
       style="font-style:normal;font-variant:normal;font-weight:800;font-stretch:normal;font-size:53.33333206px;line-height:1.25;font-family:'Quiet Sans';-inkscape-font-specification:'Quiet Sans Ultra-Bold';fill:#ffffff;fill-opacity:1;stroke-width:1.40120506px"
       d="m 60.079992,155.1257 h 9.44 v -26.72 h 10.08 v -8.48 H 49.999993 v 8.48 h 10.079999 z" />
    <path
       id="path834"
       style="font-style:normal;font-variant:normal;font-weight:800;font-stretch:normal;font-size:53.33333206px;line-height:1.25;font-family:'Quiet Sans';-inkscape-font-specification:'Quiet Sans Ultra-Bold';fill:#ffffff;fill-opacity:1;stroke-width:1.40120506px"
       d="m 83.304159,155.1257 h 9.439999 v -12.05333 h 3.04 l 7.200002,12.05333 h 11.25333 l -8.58667,-13.28 c 4.16,-1.70666 6.24,-5.17333 6.24,-10.34666 0,-7.62667 -4.53333,-11.57334 -13.493328,-11.57334 H 83.304159 Z m 9.439999,-19.62666 v -7.57334 h 5.013334 c 3.146668,0 4.533328,1.17334 4.533328,3.78667 0,2.61333 -1.38666,3.78667 -4.533328,3.78667 z" />
    <path
       id="path836"
       style="font-style:normal;font-variant:normal;font-weight:800;font-stretch:normal;font-size:53.33333206px;line-height:1.25;font-family:'Quiet Sans';-inkscape-font-specification:'Quiet Sans Ultra-Bold';fill:#ffffff;fill-opacity:1;stroke-width:1.40120506px"
       d="m 124.45499,155.1257 h 9.44 v -26.72 h 10.08 v -8.48 h -29.6 v 8.48 h 10.08 z" />
  </g>
  <g
     id="text1050"
     style="font-style:normal;font-weight:normal;font-size:16.81446075px;line-height:0%;font-family:sans-serif;letter-spacing:0px;word-spacing:0px;fill:#ffffff;fill-opacity:1;stroke:none;stroke-width:1.40120506px;stroke-linecap:butt;stroke-linejoin:miter;stroke-opacity:1"
     aria-label="RADYOLARI">
    <path
       id="path839"
       style="font-style:normal;font-variant:normal;font-weight:300;font-stretch:normal;font-size:46.66666794px;line-height:1.25;font-family:'Quiet Sans';-inkscape-font-specification:'Quiet Sans Light';fill:#ffffff;fill-opacity:1;stroke-width:1.40120506px"
       d="m 49.932152,199.92789 h 2.706667 v -13.44 h 9.286666 l 10.360001,13.44 h 3.406666 L 65.238819,186.39455 c 5.366667,-0.60666 8.166667,-3.5 8.166667,-8.58666 0,-5.78667 -3.546667,-8.68 -10.406667,-8.68 H 49.932152 Z m 2.706667,-15.91334 v -12.41333 h 10.36 c 5.226667,0 7.653333,2.00667 7.653333,6.20667 0,4.2 -2.426666,6.20666 -7.653333,6.20666 z" />
    <path
       id="path841"
       style="font-style:normal;font-variant:normal;font-weight:300;font-stretch:normal;font-size:46.66666794px;line-height:1.25;font-family:'Quiet Sans';-inkscape-font-specification:'Quiet Sans Light';fill:#ffffff;fill-opacity:1;stroke-width:1.40120506px"
       d="m 76.172674,199.92789 h 2.8 l 3.593333,-8.21334 h 16.380001 l 3.546662,8.21334 h 2.89334 l -13.440002,-30.8 h -2.333334 z m 7.466667,-10.68667 7.093333,-16.52 7.093334,16.52 z" />
    <path
       id="path843"
       style="font-style:normal;font-variant:normal;font-weight:300;font-stretch:normal;font-size:46.66666794px;line-height:1.25;font-family:'Quiet Sans';-inkscape-font-specification:'Quiet Sans Light';fill:#ffffff;fill-opacity:1;stroke-width:1.40120506px"
       d="m 109.81496,199.92789 h 9.52 c 10.68667,0 16.8,-5.64667 16.8,-15.4 0,-9.8 -6.11333,-15.4 -16.8,-15.4 h -9.52 z m 2.70667,-2.47334 v -25.85333 h 6.76667 c 9.14666,0 14.09333,4.57333 14.09333,12.92667 0,8.35333 -4.94667,12.92666 -14.09333,12.92666 z" />
    <path
       id="path845"
       style="font-style:normal;font-variant:normal;font-weight:300;font-stretch:normal;font-size:46.66666794px;line-height:1.25;font-family:'Quiet Sans';-inkscape-font-specification:'Quiet Sans Light';fill:#ffffff;fill-opacity:1;stroke-width:1.40120506px"
       d="m 148.12684,199.92789 h 2.70667 v -13.95334 l 12.13333,-16.84666 h -3.17333 l -10.26667,14.23333 -10.22,-14.23333 h -3.31333 l 12.13333,16.89333 z" />
    <path
       id="path847"
       style="font-style:normal;font-variant:normal;font-weight:300;font-stretch:normal;font-size:46.66666794px;line-height:1.25;font-family:'Quiet Sans';-inkscape-font-specification:'Quiet Sans Light';fill:#ffffff;fill-opacity:1;stroke-width:1.40120506px"
       d="m 178.8583,200.48789 c 9.38,0 15.91334,-6.62667 15.91334,-15.96 0,-9.38 -6.53334,-15.96 -15.91334,-15.96 -9.38,0 -15.96,6.58 -15.96,15.96 0,9.33333 6.58,15.96 15.96,15.96 z m 0,-2.52 c -7.79333,0 -13.20666,-5.55334 -13.20666,-13.44 0,-7.93334 5.41333,-13.44 13.20666,-13.44 7.79334,0 13.16,5.50666 13.16,13.44 0,7.88666 -5.36666,13.44 -13.16,13.44 z" />
    <path
       id="path849"
       style="font-style:normal;font-variant:normal;font-weight:300;font-stretch:normal;font-size:46.66666794px;line-height:1.25;font-family:'Quiet Sans';-inkscape-font-specification:'Quiet Sans Light';fill:#ffffff;fill-opacity:1;stroke-width:1.40120506px"
       d="m 201.14309,199.92789 h 20.90667 v -2.52 h -18.2 v -28.28 h -2.70667 z" />
    <path
       id="path851"
       style="font-style:normal;font-variant:normal;font-weight:300;font-stretch:normal;font-size:46.66666794px;line-height:1.25;font-family:'Quiet Sans';-inkscape-font-specification:'Quiet Sans Light';fill:#ffffff;fill-opacity:1;stroke-width:1.40120506px"
       d="m 222.82632,199.92789 h 2.8 l 3.59333,-8.21334 h 16.38 l 3.54667,8.21334 h 2.89333 l -13.44,-30.8 h -2.33333 z m 7.46667,-10.68667 7.09333,-16.52 7.09333,16.52 z" />
    <path
       id="path853"
       style="font-style:normal;font-variant:normal;font-weight:300;font-stretch:normal;font-size:46.66666794px;line-height:1.25;font-family:'Quiet Sans';-inkscape-font-specification:'Quiet Sans Light';fill:#ffffff;fill-opacity:1;stroke-width:1.40120506px"
       d="m 256.46862,199.92789 h 2.70667 v -13.44 h 9.28666 l 10.36,13.44 h 3.40667 l -10.45333,-13.53334 c 5.36666,-0.60666 8.16666,-3.5 8.16666,-8.58666 0,-5.78667 -3.54666,-8.68 -10.40666,-8.68 h -13.06667 z m 2.70667,-15.91334 v -12.41333 h 10.36 c 5.22666,0 7.65333,2.00667 7.65333,6.20667 0,4.2 -2.42667,6.20666 -7.65333,6.20666 z" />
    <path
       id="path855"
       style="font-style:normal;font-variant:normal;font-weight:300;font-stretch:normal;font-size:46.66666794px;line-height:1.25;font-family:'Quiet Sans';-inkscape-font-specification:'Quiet Sans Light';fill:#ffffff;fill-opacity:1;stroke-width:1.40120506px"
       d="m 287.00246,199.92789 h 2.70667 v -30.8 h -2.70667 z" />
  </g>
  <path
     id="circle1607"
     d="m 195.35979,184.28629 a 16.59314,16.59314 0 0 1 -16.59314,16.59314 16.59314,16.59314 0 0 1 -16.59314,-16.59314 16.59314,16.59314 0 0 1 16.59314,-16.59314 16.59314,16.59314 0 0 1 16.59314,16.59314 z"
     style="color:#000000;clip-rule:nonzero;display:inline;overflow:visible;visibility:visible;opacity:1;isolation:auto;mix-blend-mode:normal;color-interpolation:sRGB;color-interpolation-filters:linearRGB;solid-color:#000000;solid-opacity:1;fill:#ffffff;fill-opacity:1;fill-rule:nonzero;stroke:none;stroke-width:2.43249917;stroke-linecap:butt;stroke-linejoin:miter;stroke-miterlimit:4;stroke-dasharray:none;stroke-dashoffset:0;stroke-opacity:1;color-rendering:auto;image-rendering:auto;shape-rendering:auto;text-rendering:auto;enable-background:accumulate" />
</svg>
